<?xml version="1.0" encoding="utf-8"?>
<!-- Generator: Adobe Illustrator 20.0.0, SVG Export Plug-In . SVG Version: 6.00 Build 0)  -->
<svg version="1.1" id="Layer_1" xmlns="http://www.w3.org/2000/svg" xmlns:xlink="http://www.w3.org/1999/xlink" x="0px" y="0px"
	 viewBox="0 0 255.7 113.7" style="enable-background:new 0 0 255.7 113.7;" xml:space="preserve">
<style type="text/css">
	.st0{opacity:0.5;}
	.st1{fill:#D13239;}
	.st2{fill:#BEC4C8;}
</style>
<g class="st0">
	<path class="st1" d="M25.5,40.5c-8.3,0-15-6.7-15-15s6.7-15,15-15s15,6.7,15,15S33.8,40.5,25.5,40.5z"/>
</g>
<g>
	<rect x="93.3" y="91.9" transform="matrix(0.7071 -0.7072 0.7072 0.7071 -39.3104 93.9857)" class="st2" width="1" height="5"/>
	<rect x="100.4" y="99" transform="matrix(0.7072 -0.7071 0.7071 0.7072 -42.239 101.0378)" class="st2" width="1" height="5"/>
	<rect x="123.5" y="112.7" class="st2" width="5" height="1"/>
	<rect x="86.2" y="84.9" transform="matrix(0.7071 -0.7072 0.7072 0.7071 -36.3812 86.9141)" class="st2" width="1" height="5"/>
	<rect x="107.4" y="106.1" transform="matrix(0.7072 -0.7071 0.7071 0.7072 -45.1682 108.108)" class="st2" width="1" height="5"/>
	<rect x="57.9" y="56.6" transform="matrix(0.7071 -0.7072 0.7072 0.7071 -24.6655 58.6271)" class="st2" width="1" height="5"/>
	<rect x="133.5" y="112.7" class="st2" width="5" height="1"/>
	<rect x="79.1" y="77.8" transform="matrix(0.7071 -0.7072 0.7072 0.7071 -33.4522 79.8421)" class="st2" width="1" height="5"/>
	<rect x="50.9" y="49.5" transform="matrix(0.7071 -0.7072 0.7072 0.7071 -21.7365 51.5551)" class="st2" width="1" height="5"/>
	<rect x="65" y="63.7" transform="matrix(0.7072 -0.7071 0.7071 0.7072 -27.5943 65.6857)" class="st2" width="1" height="5"/>
	<rect x="72.1" y="70.7" transform="matrix(0.7072 -0.7071 0.7071 0.7072 -30.5233 72.7563)" class="st2" width="1" height="5"/>
	<rect x="113.5" y="112.7" class="st2" width="5" height="1"/>
	<rect x="233.5" y="112.7" class="st2" width="5" height="1"/>
	<rect x="223.5" y="112.7" class="st2" width="5" height="1"/>
	<rect x="243.5" y="112.7" class="st2" width="5" height="1"/>
	<rect x="203.5" y="112.7" class="st2" width="5" height="1"/>
	<rect x="143.5" y="112.7" class="st2" width="5" height="1"/>
	<rect x="253.5" y="112.7" class="st2" width="2.2" height="1"/>
	<rect x="213.5" y="112.7" class="st2" width="5" height="1"/>
	<rect x="153.5" y="112.7" class="st2" width="5" height="1"/>
	<rect x="163.5" y="112.7" class="st2" width="5" height="1"/>
	<rect x="173.5" y="112.7" class="st2" width="5" height="1"/>
	<rect x="183.5" y="112.7" class="st2" width="5" height="1"/>
	<rect x="193.5" y="112.7" class="st2" width="5" height="1"/>
	<path class="st2" d="M11.9,5.1l-0.6-0.8c-1.4,0.9-2.7,2-3.9,3.2l0.7,0.7C9.3,7.1,10.5,6,11.9,5.1z"/>
	<path class="st2" d="M0.5,30.6c0.3,1.6,0.8,3.2,1.5,4.8L2.9,35c-0.6-1.5-1.1-3-1.4-4.6L0.5,30.6z"/>
	<path class="st2" d="M20.7,1.5l-0.2-1c-1.6,0.3-3.2,0.8-4.8,1.5l0.4,0.9C17.6,2.3,19.1,1.8,20.7,1.5z"/>
	<path class="st2" d="M1,25.5c0-1.6,0.2-3.2,0.5-4.8l-1-0.2c-0.3,1.6-0.5,3.3-0.5,5l0,0.1h1L1,25.5z"/>
	<path class="st2" d="M5.1,11.9l-0.8-0.6c-0.9,1.4-1.7,2.9-2.4,4.4l0.9,0.4C3.5,14.7,4.2,13.2,5.1,11.9z"/>
	<path class="st2" d="M50.5,20.5c-0.3-1.6-0.8-3.2-1.5-4.8l-0.9,0.4c0.6,1.5,1.1,3,1.4,4.6L50.5,20.5z"/>
	<path class="st2" d="M46.7,11.3c-0.9-1.4-2-2.7-3.2-3.9l-0.7,0.7c1.1,1.1,2.2,2.4,3.1,3.7L46.7,11.3z"/>
	<path class="st2" d="M49.5,30.2l1,0.2c0.3-1.6,0.5-3.3,0.5-4.9v-0.1l-1,0.1C50,27.1,49.8,28.7,49.5,30.2z"/>
	<path class="st2" d="M35.2,1.9l-0.4,0.9c1.5,0.6,2.9,1.4,4.2,2.3l0.6-0.8C38.3,3.3,36.8,2.6,35.2,1.9z"/>
	<path class="st2" d="M42.9,42.8c-1.1,1.1-2.4,2.2-3.7,3.1l0.6,0.8c1.1-0.7,2.1-1.6,3.1-2.5l2.9,2.9l0.7-0.7L42.9,42.8z"/>
	<path class="st2" d="M30.4,49.5l0.2,1c1.6-0.3,3.2-0.8,4.8-1.5l-0.4-0.9C33.5,48.7,31.9,49.2,30.4,49.5z"/>
	<path class="st2" d="M4.3,39.7c0.9,1.4,2,2.7,3.2,3.8l0.7-0.7c-1.1-1.1-2.2-2.4-3.1-3.7L4.3,39.7z"/>
	<path class="st2" d="M45.9,39.1l0.8,0.6c0.9-1.4,1.7-2.9,2.3-4.4l-0.9-0.4C47.6,36.3,46.8,37.7,45.9,39.1z"/>
	<path class="st2" d="M25.5,0C25.5,0,25.5,0,25.5,0l0,0.2l0,0.8c1.6,0,3.2,0.2,4.8,0.5l0.2-1C28.8,0.2,27.2,0,25.5,0z"/>
	<path class="st2" d="M11.4,46.8c1.4,0.9,2.9,1.7,4.4,2.3l0.4-0.9c-1.5-0.6-2.9-1.4-4.2-2.3L11.4,46.8z"/>
	<path class="st2" d="M20.8,49.5l-0.2,1c1.6,0.3,3.2,0.5,4.9,0.5l0.1,0l-0.1-1C23.9,50,22.3,49.8,20.8,49.5z"/>
</g>
</svg>
