<?xml version="1.0" encoding="utf-8"?>
<!-- Generator: Adobe Illustrator 20.0.0, SVG Export Plug-In . SVG Version: 6.00 Build 0)  -->
<svg version="1.1" id="Layer_1" xmlns="http://www.w3.org/2000/svg" xmlns:xlink="http://www.w3.org/1999/xlink" x="0px" y="0px"
	 viewBox="0 0 548.3 105.2" style="enable-background:new 0 0 548.3 105.2;" xml:space="preserve">
<style type="text/css">
	.st0{fill:#D13239;}
	.st1{fill:#FFFFFF;}
</style>
<g>
	<path class="st0" d="M130.2,30.3c6.2,24.2-17.7,51.2-53.4,60.3C41.1,99.8,7.2,87.6,1,63.4c-0.4-1.5-0.7-3-0.8-4.5
		c-0.6-5.7,20.7,1.7,22.7-13.2c1.4-10.2-14.7-14-10.5-18.6c9.7-10.7,24.4-19.5,42-24C90.1-6.1,124.1,6.1,130.2,30.3"/>
	<path class="st1" d="M77.9,73.3c-14.5-0.2-48.2-5.1-53.4-21.9C19.3,34.8,35,20.3,56,17.7c0,0,20.2-2,25.6,6.6
		C86,33.9,77.1,44.9,56,46.8c0,0-4.4,0.6-13.1,0.5l1,3.8c0,0,50.1,5.2,62.4-18.2C114.5,15.6,78,13.1,78,13.1S39.8,7.7,12.5,27
		C3.7,36.7-1,47.9,0.2,58.9c1.5,2.5,3.7,5,6.9,7.4c22.1,14.6,50.2,11.9,59.8,12.3c0,0,30.5,0,49.8-10.3
		C116.7,68.3,98.1,73.7,77.9,73.3"/>
	<path class="st1" d="M243.4,61.8c-1.9,2-3.7,2.9-6.2,3.8c-3.7,1.3-9.1,0.8-11.2-1.5c-2.3-2.6-2.1-6.1-0.8-8.8
		c1.8-3.7,4.7-6.7,9.1-8.2c3.7-1.3,9-0.8,10.8,1.6c0.4,0.5,1,1.5,1.4,2.5c0.1,0.3,0.3,0.8,0.3,0.8l19.2-2.6c0,0-0.7-4.2-3.3-7.1
		c-7.9-8.8-23.9-8.1-34.9-4.9c-8.7,2.6-16.1,7.9-20.3,16c-2.7,5.3-3.8,12.4,0.1,16.8c7.8,8.8,23.5,9,34.5,5.9
		c7.1-2,13.8-5.7,18.2-11.8c0.5-0.6,1.5-2.2,1.5-2.2l-17.3-1.6C244.6,60.4,243.8,61.4,243.4,61.8"/>
	<path class="st1" d="M525.6,61.8c-1.9,2-3.7,2.9-6.2,3.8c-3.7,1.3-9.1,0.8-11.2-1.5c-2.3-2.6-2.1-6.1-0.8-8.8
		c1.8-3.7,4.7-6.7,9.1-8.2c3.7-1.3,9-0.8,10.8,1.6c0.4,0.5,1,1.5,1.4,2.5c0.1,0.3,0.3,0.8,0.3,0.8l19.2-2.6c0,0-0.7-4.2-3.3-7.1
		c-7.9-8.8-23.9-8.1-34.9-4.9c-8.6,2.6-16.1,7.9-20.3,16c-2.7,5.3-3.8,12.4,0.1,16.8c7.8,8.8,23.5,9,34.5,5.9
		c7.1-2,13.8-5.7,18.2-11.8c0.5-0.6,1.5-2.2,1.5-2.2l-17.3-1.6C526.8,60.4,526,61.4,525.6,61.8"/>
	<path class="st1" d="M361.5,34.9c-3.9,0.4-9,1.5-13.4,3.4c-8.5,3.5-13.9,8.9-16.9,15.4c-2.4,5.2-3.1,11.8,0.6,16.4
		c7.4,9,22.4,8.8,33,6c8.7-2.3,16.6-7.2,21.5-14.9c3.5-5.6,4.6-11.6,1.9-16.7C383.5,35.5,370.8,33.9,361.5,34.9 M369.6,57.4
		c-1.3,2.8-4.2,6-8.2,7.6c-3.5,1.4-8.1,1.4-10.7-0.6c-2.3-1.8-3-4.9-2.3-7.8c0.7-2.7,2.5-6.3,6.6-8.9c1.9-1.2,3.5-1.7,4.9-2
		c2.9-0.6,7.2,0,9.2,2.7C371,50.8,370.9,54.6,369.6,57.4"/>
	<polygon class="st1" points="408.3,21.1 391,76.5 408.8,76.5 426.1,21.1 	"/>
	<polygon class="st1" points="208.5,21.1 155.3,21.1 137.9,76.5 194.3,76.5 198.5,63 161.5,63 163.9,55.5 193.7,55.5 197.6,43.2 
		167.6,43.2 170,35.5 204,35.5 	"/>
	<path class="st1" d="M481.7,50.3c1-3.3,2.7-7.9,1-10.2c-3.3-4.3-9.1-5.3-15.3-5.5h-17.1c-5,0-12.4,1.5-15.6,5.3
		c-2.8,3.3-4,5.4-5.6,8.8H445c0.6-1.7,1.5-2.8,3.2-3.7c2.8-1.5,11.1-1.2,13.1-0.2c2.2,1.1,2.3,2.8,1.7,5.4c0,0-15.6,0.3-19.6,0.8
		c-7.9,1-16.1,2.1-20.5,10.2c-3.1,5.6-3,11.2,2.1,14.3c7.6,4.5,22.1,1.7,31.6-2.7c0,0-0.7,2.4-0.5,3.7h20.4
		c-1.5-1.9-1.5-4.8-0.3-8.7C478.3,60.6,479.6,57.2,481.7,50.3 M448.4,66c-2.6,0.4-6.9,0.6-8.1-2.4c-0.2-0.5-0.1-2.3,0.5-2.9
		c1.9-2.1,4.3-2,9.9-2.1c3.8-0.1,5.8-0.1,9.6-0.2C457.1,63.6,453.2,65.3,448.4,66"/>
	<path class="st1" d="M321.3,37.5c-8.4-4.9-19.9-2.1-28,3c2.3-7.5,6-19.3,6-19.3h-17.8l-17.3,55.2h17.8c0.4-1.2,3.3-10.2,5.2-16.2
		c1.8-5.7,2.3-8.8,7.6-11.7c3-1.6,7.5-1.6,9.2-0.5c3.7,2.4,1.8,7.4,0.6,11.2c-2,6.3-5,15.9-5.4,17.1h17.7c0.5-1.4,4.3-13.5,6.8-21.5
		C325.8,48,327.7,41.2,321.3,37.5"/>
	<path class="st1" d="M339.1,93.4c0.6-2-1.3-2.3-3-2.3c-1.8,0-3.2,0.8-3.6,1.8c-0.3,0.8,0.2,1.3,1.2,1.5l5,0.9
		c2.7,0.5,4.4,1.5,3.3,4.4c-1.2,2.9-4.1,5.3-10.3,5.3c-3.8,0-8.6-0.5-6.7-5.4h4.8c-0.8,2.2,1.2,2.5,3,2.5c2,0,3.6-0.6,4.1-2
		c0.5-1.2-0.4-1.5-1.9-1.8l-3.7-0.6c-2.6-0.4-4.9-1.2-3.6-4.4c1.4-3.5,4.8-4.9,9.7-4.9c3.2,0,7.8,0.6,6.3,5H339.1z"/>
	<path class="st1" d="M351.3,92.8h3.9l-4.7,11.8h-3.9L351.3,92.8z M353,88.6h3.9l-1.1,2.7h-3.9L353,88.6z"/>
	<path class="st1" d="M370.4,97.9c0.6-1.6,0.1-2.4-1.6-2.4c-1.8,0-3.7,0.9-4.7,3.4l-2.3,5.7H358l4.7-11.8h3.7l-0.7,1.7h0
		c1.1-1,3.4-2,5.6-2c2,0,4.8,0.8,3.4,4.2l-3.1,7.8h-3.9L370.4,97.9z"/>
	<path class="st1" d="M392.5,97.1c0.2-1.6-0.8-2.1-2.4-2.1c-2.4,0-4.3,1.3-5.2,3.6c-0.9,2.3,0,3.6,2.3,3.6c1.7,0,3.4-0.9,4.2-2.4h4
		c-2.4,4.2-5.7,5.1-9.6,5.1c-4.4,0-6.7-1.9-4.9-6.3c1.8-4.4,5.6-6.3,10.3-6.3c3,0,6.1,0.9,5.3,4.8H392.5z"/>
	<path class="st1" d="M416.1,101c-2.2,2.8-5.4,4-8.9,4c-4.7,0-7-1.9-5.3-6.3c1.8-4.4,5.6-6.3,10.3-6.3c5.1,0,6.5,2.6,4.8,7l-0.1,0.4
		h-11.4l0,0c-0.4,1.1,0,2.8,2.7,2.8c1.6,0,2.9-0.5,3.8-1.5H416.1z M413.8,97.4L413.8,97.4c0.3-0.7,0.2-2.7-2.6-2.7
		c-3.1,0-4.6,2.3-4.7,2.6l0,0H413.8z"/>
	<path class="st1" d="M442.7,94.8h-4.6l1.1-2.7c3.4-0.1,4.8-0.3,6.6-2.8h3.1l-6.1,15.3h-4L442.7,94.8z"/>
	<path class="st1" d="M465.5,100.5c0,1.4,1.2,1.6,2.5,1.6c2.9,0,4.6-1.6,5.7-4.2c-1.5,1.1-3.5,1.5-5.2,1.5c-3.2,0-6.8-0.9-5.2-5
		c1.4-3.6,5.3-5.5,9.7-5.5c6.4,0,6.9,3.5,5.1,8c-1.7,4.2-5,8.1-11.7,8.1c-3,0-6.3-0.9-5.2-4.5H465.5z M474.8,94.2
		c0.5-1.2,0.1-2.4-2.8-2.4c-1.9,0-3.6,0.9-4.3,2.4c-0.4,1.1-0.3,2.5,2.7,2.5C472.6,96.7,474.2,95.8,474.8,94.2z"/>
	<path class="st1" d="M505.1,93.4c0-1.4-1.2-1.6-2.5-1.6c-2.9,0-4.6,1.6-5.7,4.2c1.5-1.1,3.5-1.5,5.2-1.5c3.2,0,6.8,0.9,5.2,5
		c-1.4,3.6-5.3,5.5-9.7,5.5c-6.4,0-6.9-3.5-5.1-8c1.7-4.2,5-8.1,11.7-8.1c3,0,6.3,0.9,5.2,4.5H505.1z M495.9,99.7
		c-0.5,1.2-0.1,2.4,2.8,2.4c1.9,0,3.6-0.9,4.3-2.4c0.5-1.1,0.3-2.5-2.7-2.5C498,97.2,496.5,98.1,495.9,99.7z"/>
	<path class="st1" d="M529.4,101.6h-9.7l1.1-2.9l12.3-9.4h4.9l-3.8,9.6h2.8l-1.1,2.7h-2.8l-1.2,2.9h-3.7L529.4,101.6z M533,92.4
		l-8.3,6.5h5.7L533,92.4z"/>
	<g>
		<path class="st1" d="M134.4,92.2c1.4-0.1,2.5-0.2,3.5-0.2s1.7,0,2.2,0.1c0.5,0.1,0.9,0.2,1.3,0.3c0.3,0.1,0.6,0.3,0.8,0.5
			s0.4,0.5,0.5,0.7s0.2,0.5,0.2,0.7s0,0.5,0,0.6c0,0.4-0.1,1-0.2,1.8L141,105h-3.8l1.7-8.1c0-0.2,0.1-0.4,0.1-0.6
			c0-0.9-0.5-1.3-1.6-1.3c-1,0-2.1,0.1-3.6,0.2L134.4,92.2z"/>
		<path class="st1" d="M149.3,92.2h6.4l-0.5,2.3l-2.9,5.7l0,0l-2.1,4.8h-3.7l2.1-4.9l2.5-5h-6.3l1.2-5.5h3.8L149.3,92.2z"/>
		<path class="st1" d="M157.2,92.2c0.5-0.1,1.2-0.2,2-0.2s1.4,0.1,1.9,0.2c0.5,0.2,0.8,0.4,1.1,0.6c0.4,0.5,0.7,1.1,0.7,2
			c0,0.4-0.1,0.9-0.2,1.5l-1,4.7c-0.1,0.6-0.3,1.3-0.5,1.9c-0.2,0.7-0.4,1.2-0.5,1.5l-0.2,0.5H154l0.6-3h3c0.1-0.3,0.3-0.7,0.3-1
			l1-4.7c0-0.2,0-0.4,0-0.6s-0.1-0.3-0.2-0.5s-0.3-0.2-0.5-0.2c-0.4,0-0.9,0-1.4,0.1l-0.3,0L157.2,92.2z"/>
		<path class="st1" d="M175.7,92.2l-0.6,2.7c-0.7,0.3-1.2,0.5-1.5,0.9s-0.5,0.8-0.7,1.5l-1.6,7.7h-3.8l1.6-7.8
			c0.2-0.9,0.6-1.6,1.3-2.1h-6.1l0.6-3H175.7z"/>
		<path class="st1" d="M188.6,92c2.2,0,3.6,0.4,4.2,1.2c0.3,0.4,0.4,1,0.4,1.6c0,0.6-0.1,1.2-0.2,1.9l-1.7,8.3h-3.8l1.7-8.1
			c0-0.2,0.1-0.4,0.1-0.6c0-0.9-0.5-1.3-1.6-1.3c-0.3,0-0.6,0-0.7,0l-1.3,6.1c-0.1,0.5-0.2,0.9-0.4,1.3s-0.4,0.8-0.6,1.1
			c-0.3,0.4-0.6,0.7-0.9,0.9c-0.8,0.5-1.8,0.8-3,0.8c-0.3,0-0.6,0-0.9-0.1c-0.3-0.1-0.5-0.1-0.6-0.2l-0.2-0.1l0.6-2.8
			c0.5,0.1,0.9,0.1,1.2,0.1s0.6-0.1,0.7-0.2c0.1-0.2,0.3-0.4,0.3-0.8l1.2-5.9l-1.4,0.1l0.6-2.9C184.6,92.1,186.6,92,188.6,92z"/>
		<path class="st1" d="M198.9,98.2l-2.7,2.7h-1.7l1.8-8.7h3.8L198.9,98.2z"/>
		<path class="st1" d="M209.9,92.9c0.2,0.2,0.4,0.4,0.5,0.7s0.2,0.5,0.2,0.7c0,0.2,0,0.4,0,0.6c0,0.4-0.1,1-0.2,1.8l-1.1,5.3h1.4
			l-0.6,3h-10.6l0.6-3h5.4l1.1-5.2c0-0.2,0.1-0.4,0.1-0.6c0-0.9-0.5-1.3-1.6-1.3c-0.8,0-1.8,0.1-2.9,0.2l-0.6,0.1l0.6-2.9
			c0.8-0.2,2.2-0.3,4-0.3S209.3,92.3,209.9,92.9z"/>
		<path class="st1" d="M217.4,92.2c0.1,0.4,0.2,0.8,0.2,1.3h0.1c0.7-0.6,1.6-1.1,2.6-1.3c0.4-0.1,0.9-0.2,1.4-0.2s1,0.1,1.5,0.3
			s0.8,0.5,1,0.8c0.4,0.5,0.6,1.3,0.6,2.3c0,0.7-0.1,1.5-0.3,2.4L223,105h-6.1l0.6-3h2.3l0.9-4.3c0.2-1,0.3-1.6,0.2-1.9
			c-0.1-0.4-0.3-0.6-0.6-0.7c-0.2-0.1-0.4-0.1-0.7-0.1s-0.6,0.1-1,0.3s-0.6,0.4-0.8,0.7l-0.3,0.3l-2.5,8.6h-3.7l2.4-8.1
			c0.4-1.1,0.6-2.2,0.6-3.3c0-0.5,0-0.9-0.1-1.4H217.4z"/>
	</g>
</g>
</svg>
