<svg style="position: absolute; width: 0; height: 0;" width="0" height="0" version="1.1" xmlns="http://www.w3.org/2000/svg" xmlns:xlink="http://www.w3.org/1999/xlink">
<defs>
  <symbol id="firm" viewBox="0 0 32 32">
  <path fill="#fff" class="path1 fill-color3" d="M31.842 16c0 8.749-7.093 15.842-15.842 15.842s-15.842-7.093-15.842-15.842c0-8.749 7.093-15.842 15.842-15.842s15.842 7.093 15.842 15.842z"></path>
  <path fill="#333" class="path2 fill-color1" d="M26.519 20.566c-0.716-6.083-4.179-10.173-5.747-11.745-0.51-0.509-0.899-1.139-1.119-1.844l-0.471-1.556c-0.038-0.108-0.079-0.209-0.124-0.317-0.482-1.062-1.532-1.787-2.752-1.787-0.005 0-0.010 0-0.014 0h-4.913c-0.268 0.050-0.493 0.207-0.631 0.424-0.398 0.493-0.638 1.122-0.638 1.807 0 0.034 0.001 0.069 0.002 0.103l0.044 1.462c0.039 1.436 1.074 2.619 2.436 2.886 0.704 0.125 1.493 0.195 2.298 0.195 0.196 0 0.391-0.004 0.584-0.012 0.787 0.001 1.37-1.514 1.37-1.514 1.514 4.436 0.814 9.435 0.814 9.435l-0.814 0.349c-0.684-2.611-4.242-2.072-4.242-2.072-1.449 0.122-2.643 1.094-3.088 2.411-1.044-0.819-2.302-1.432-3.681-1.714l-0.055-0.009c-0.172 0.004-0.31 0.144-0.31 0.317 0 0.035 0.006 0.069 0.016 0.101l1.932 6.949c0.697 2.465 2.926 4.24 5.57 4.24 0.101 0 0.202-0.003 0.302-0.008 3.048-0.162 5.867-1.074 8.303-2.553 0.523-0.329 1.759-1.077 2.525-1.54 0.783-0.475 1.415-1.127 1.853-1.904 0.354-0.575 0.555-1.24 0.555-1.953 0-0.053-0.001-0.106-0.003-0.159z"></path>
  </symbol>
  <symbol id="handle" viewBox="0 0 32 32">
  <path fill="#fff" class="path1 fill-color3" d="M31.842 16c0 8.749-7.093 15.842-15.842 15.842s-15.842-7.093-15.842-15.842c0-8.749 7.093-15.842 15.842-15.842s15.842 7.093 15.842 15.842z"></path>
  <path fill="#333" class="path2 fill-color1" d="M7.867 21.12c0.471-0.164 1.014-0.263 1.58-0.272l0.005-9.524c0-0.044-0.054 0-0.051 0h-1.533z"></path>
  <path fill="#333" class="path3 fill-color1" d="M11.352 22.365c0.95-0.437 2.579-0.694 4.097-0.694 0.038-0 0.083-0.001 0.128-0.001 1.559 0 3.047 0.303 4.409 0.853l-0.079 1.144h5.123c-0.45-0.951-1.942-1.752-3.72-1.752-0.070 0-0.133-0.019-0.203-0.016-1.609-0.8-3.505-1.269-5.51-1.269-0.068 0-0.135 0.001-0.203 0.002-0.030-0.001-0.077-0.001-0.124-0.001-2.028 0-3.944 0.479-5.641 1.33-1.641 0.005-3.067 0.759-3.504 1.71h5.228z"></path>
  <path fill="#333" class="path4 fill-color1" d="M16 31.861c0.037 0 0.081 0 0.126 0 5.515 0 10.363-2.857 13.144-7.172l-26.564-0.062c2.818 4.377 7.666 7.234 13.181 7.234 0.040 0 0.079-0 0.119-0z"></path>
  <path fill="#333" class="path5 fill-color1" d="M23.392 21.12v-9.796h-1.622s0.041-0.048 0.041 0v9.521c0.58 0.041 1.119 0.139 1.636 0.289z"></path>
  <path fill="#333" class="path6 fill-color1" d="M7.233 9.188v0.466c0 0.288 0.317 0.703 0.599 0.703h1.641c0.25 0 0.466-0.269 0.51-0.516 0.111-0.857 0.835-1.512 1.713-1.512 0.040 0 0.080 0.001 0.12 0.004 0.188-0 0.311-0 0.353-0s0.022 0 0.035 0c0.987 0.202 2.121 0.317 3.283 0.317 0.034 0 0.069-0 0.103-0 0.025 0 0.061 0 0.097 0 1.153 0 2.279-0.115 3.368-0.335l-0.064 0.018c0.102-0.018 0.22-0.029 0.34-0.029 0.008 0 0.017 0 0.025 0 0.021-0.001 0.046-0.002 0.072-0.002 0.901 0 1.645 0.674 1.754 1.545 0.048 0.256 0.264 0.525 0.511 0.525h1.641c0.288 0 0.374-0.418 0.374-0.703v-0.482c0.001-0.029 0.001-0.063 0.001-0.097 0-2.45-1.986-4.436-4.436-4.436-0.047 0-0.094 0.001-0.141 0.002l-7.093-0c-2.611 0.013-4.806 1.945-4.806 4.531z"></path>
  </symbol>
  <symbol id="lock" viewBox="0 0 32 32">
  <path fill="#fff" class="path1 fill-color3" d="M31.842 16c0 8.749-7.093 15.842-15.842 15.842s-15.842-7.093-15.842-15.842c0-8.749 7.093-15.842 15.842-15.842s15.842 7.093 15.842 15.842z"></path>
  <path fill="#333" class="path2 fill-color1" d="M12.093 10.712c0-2.156 1.748-3.903 3.903-3.903s3.903 1.748 3.903 3.903v2.338h1.901v-2.338c0-3.204-2.597-5.801-5.801-5.801s-5.801 2.597-5.801 5.801v2.338h1.901z"></path>
  <path fill="#333" class="path3 fill-color1" d="M23.826 21.861l-0.266-7.398c-0.017-0.354-0.308-0.634-0.665-0.634-0 0-0.001 0-0.001 0h-13.75c-0 0-0 0-0 0-0.385 0-0.698 0.305-0.712 0.686l-0.257 7.13c-0.002 0.044-0.003 0.096-0.003 0.147 0 1.256 0.576 2.377 1.478 3.113 1.7 1.362 3.873 2.183 6.237 2.183 0.037 0 0.075-0 0.112-0.001 0.028 0 0.067 0.001 0.106 0.001 2.492 0 4.77-0.913 6.52-2.423 0.734-0.646 1.203-1.603 1.203-2.671 0-0.048-0.001-0.095-0.003-0.142zM16.827 21.066l0.117 1.838c-0.056 0.377-0.377 0.662-0.765 0.662-0.007 0-0.014-0-0.022-0l-0.316 0c-0.003 0-0.007 0-0.011 0-0.388 0-0.709-0.286-0.765-0.658l0.117-1.842c-0.525-0.297-0.874-0.852-0.874-1.489 0-0.941 0.763-1.705 1.705-1.705s1.705 0.763 1.705 1.705c0 0.637-0.349 1.192-0.866 1.484z"></path>
  </symbol>
  <symbol id="shild" viewBox="0 0 32 32">
  <path fill="#fff" class="path1 fill-color3" d="M31.842 16c0 8.749-7.093 15.842-15.842 15.842s-15.842-7.093-15.842-15.842c0-8.749 7.093-15.842 15.842-15.842s15.842 7.093 15.842 15.842z"></path>
  <path fill="#333" class="path2 fill-color1" d="M24.352 7.572c-0.219-0.019-0.431-0.041-0.634-0.063l-7.781 8.52-3.14-3.007-1.844 1.926 5.111 4.895 6.844-7.487c-0.051 3.802-1.267 6.954-3.656 9.41-0.927 0.955-1.999 1.764-3.182 2.39l-0.069 0.033c-1.218-0.646-2.262-1.431-3.166-2.352-2.486-2.511-3.74-5.797-3.74-9.735v-2.009c2.578-0.372 4.904-1.134 7.031-2.231 1.154 0.724 2.644 1.304 4.2 1.721l2.231-2.236c-2.182-0.411-4.128-1.118-5.909-2.089l-0.035-0.021-0.611-0.317-0.751 0.39c-2.2 1.209-4.783 2.022-7.528 2.269l-1.299 0.107v4.436c-0.001 0.051-0.001 0.111-0.001 0.171 0 2.472 0.517 4.824 1.448 6.952 0.746 1.659 1.791 3.173 3.063 4.462 1.278 1.323 2.802 2.4 4.501 3.159l0.573 0.223 0.469-0.187c1.79-0.795 3.315-1.872 4.59-3.193 1.275-1.291 2.319-2.805 3.070-4.48 0.925-2.112 1.44-4.461 1.44-6.93 0-0.069-0-0.138-0.001-0.207l0-4.425z"></path>
  </symbol>
  <symbol id="storage" viewBox="0 0 32 32">
  <path fill="#fff" class="path1 fill-color3" d="M31.842 16c0 8.749-7.093 15.842-15.842 15.842s-15.842-7.093-15.842-15.842c0-8.749 7.093-15.842 15.842-15.842s15.842 7.093 15.842 15.842z"></path>
  <path fill="#333" class="path2 fill-color1" d="M16.821 21.263l-6.574-5.212 0.637-0.802 6.067 4.809 9.404-4.604 0.447 0.922-9.98 4.886z"></path>
  <path fill="#333" class="path3 fill-color1" d="M16.374 20.661h1.023v4.825h-1.023v-4.825z"></path>
  <path fill="#333" class="path4 fill-color1" d="M16.821 26.085l-6.768-5.364v-5.386l10.268-5.028 6.768 5.361v5.386zM11.089 20.227l5.861 4.657 9.115-4.464v-4.261l-5.874-4.651-9.103 4.461z"></path>
  <path fill="#333" class="path5 fill-color1" d="M14.47 19.026l-0.45-0.919 6.302-3.086 2.896 2.294-0.637 0.802-2.389-1.892-5.722 2.801z"></path>
  <path fill="#333" class="path6 fill-color1" d="M19.748 10.909h1.023v4.718h-1.023v-4.718z"></path>
  <path fill="#333" class="path7 fill-color1" d="M11.029 13.063l7.126 2.025-0.013-7.408-7.113 5.383z"></path>
  <path fill="#333" class="path8 fill-color1" d="M12.078 6.048c-3.979-0.979-7.072 3.824-7.167 4.502l0.231 0.317c3.83-4.892 7.382 0.659 8.073 1.584l4.261-1.679c-1.483-1.987-2.928-4.119-5.399-4.724z"></path>
  </symbol>
  <symbol id="wheel" viewBox="0 0 32 32">
  <path fill="#fff" class="path1 fill-color3" d="M31.842 16c0 8.749-7.093 15.842-15.842 15.842s-15.842-7.093-15.842-15.842c0-8.749 7.093-15.842 15.842-15.842s15.842 7.093 15.842 15.842z"></path>
  <path fill="#333" class="path2 fill-color1" d="M16 4.911c-6.124 0-11.089 4.965-11.089 11.089s4.965 11.089 11.089 11.089c6.124 0 11.089-4.965 11.089-11.089s-4.965-11.089-11.089-11.089zM16 24.713c-4.8-0.007-8.688-3.9-8.688-8.7 0-4.805 3.895-8.7 8.7-8.7 4.801 0 8.693 3.888 8.7 8.687 0 0.004 0 0.009 0 0.013 0 4.805-3.895 8.7-8.7 8.7-0.004 0-0.009 0-0.013 0z"></path>
  <path fill="#333" class="path3 fill-color1" d="M16 8.177c0 0 0 0 0 0-4.32 0-7.823 3.502-7.823 7.823s3.502 7.823 7.823 7.823c4.32 0 7.823-3.502 7.823-7.823s-3.502-7.823-7.823-7.823zM13.747 10.018l3.27-0.317c0.9-0.092 1.315 0.361 0.925 1.008l-1.416 2.341c-0.163 0.321-0.491 0.537-0.87 0.537-0.31 0-0.586-0.145-0.764-0.37l-1.855-2.017c-0.507-0.564-0.19-1.093 0.71-1.182zM9.629 16.444l0.634-3.225c0.171-0.887 0.726-1.156 1.229-0.599l1.838 2.028c0.187 0.178 0.304 0.428 0.304 0.706 0 0.41-0.254 0.762-0.614 0.904l-2.478 1.2c-0.675 0.329-1.090-0.127-0.919-1.014zM14.257 22.153l-2.826-1.676c-0.776-0.459-0.843-1.074-0.149-1.359l2.535-1.046c0.128-0.067 0.28-0.106 0.441-0.106 0.528 0 0.957 0.42 0.972 0.944l0.295 2.72c0.082 0.748-0.488 0.982-1.267 0.523zM16 17.182c-0.653 0-1.182-0.529-1.182-1.182s0.529-1.182 1.182-1.182c0.653 0 1.182 0.529 1.182 1.182 0 0 0 0 0 0 0 0.653-0.529 1.182-1.182 1.182zM21.199 19.716l-2.535 2.091c-0.697 0.577-1.296 0.431-1.331-0.317l-0.127-2.734c-0.005-0.036-0.008-0.078-0.008-0.121 0-0.537 0.435-0.973 0.973-0.973 0.108 0 0.212 0.018 0.309 0.050l2.655 0.632c0.726 0.184 0.76 0.798 0.063 1.375zM21.617 16.596l-2.608-0.802c-0.439-0.1-0.761-0.487-0.761-0.949 0-0.222 0.074-0.426 0.199-0.59l1.513-2.295c0.415-0.634 1.001-0.447 1.308 0.402l1.112 3.092c0.295 0.852-0.044 1.366-0.764 1.144z"></path>
  </symbol>
  <symbol id="menu" viewBox="0 0 32 32">
  <path class="path1 fill-color1" d="M0 0h32v6.4h-32v-6.4z"></path>
  <path class="path2 fill-color1" d="M0 12.8h32v6.4h-32v-6.4z"></path>
  <path class="path3 fill-color1" d="M0 25.6h32v6.4h-32v-6.4z"></path>
  </symbol>
<symbol id="contact" viewBox="0 0 32 32">
<path fill="#db001b" class="path1 fill-color1" d="M16 32c-8.837 0-16-7.163-16-16s7.163-16 16-16c8.837 0 16 7.163 16 16-0.011 8.832-7.168 15.989-15.999 16zM16 0.627c-8.49 0-15.373 6.883-15.373 15.373s6.883 15.373 15.373 15.373c8.49 0 15.373-6.883 15.373-15.373-0.011-8.486-6.887-15.362-15.372-15.373zM22.3 24.333l-0.496-0.201c-1.314-0.518-2.445-1.219-3.426-2.084-0.698 0.21-1.514 0.325-2.356 0.325-0.008 0-0.015 0-0.023-0-4.498 0-8.156-3.26-8.156-7.266s3.658-7.263 8.157-7.263 8.157 3.26 8.157 7.266c-0.015 2.047-0.929 3.878-2.366 5.119zM18.557 21.358l0.132 0.122c0.814 0.748 1.757 1.373 2.789 1.834l-0.361-3.334 0.129-0.11c1.384-1.139 2.265-2.846 2.284-4.759 0-3.664-3.379-6.642-7.529-6.642s-7.529 2.977-7.529 6.638 3.379 6.642 7.529 6.642c0.001 0 0.003 0 0.005 0 0.848 0 1.667-0.125 2.44-0.357zM15.454 19.721c-0.032 0.003-0.069 0.005-0.106 0.005-0.693 0-1.255-0.562-1.255-1.255 0-0.042 0.002-0.084 0.006-0.126 0.039-0.6 0.151-1.164 0.327-1.7l0.080-0.29c0.076-0.221 0.141-0.485 0.182-0.756-0.003-0.266-0.094-0.485-0.24-0.654l-0.178-0.247 0.091-0.521 0.182-0.056c0.613-0.136 1.317-0.214 2.039-0.214 0.156 0 0.311 0.004 0.465 0.011l0.119-0.001 0.094 0.104c0.171 0.228 0.274 0.516 0.274 0.828 0 0.040-0.002 0.079-0.005 0.118-0.040 0.569-0.152 1.103-0.327 1.608-0.107 0.332-0.204 0.777-0.259 1.235l0.182-0.024 0.389-0.173 0.405 1.123-0.182 0.138c-0.313 0.228-0.671 0.423-1.054 0.567-0.382 0.167-0.791 0.264-1.221 0.28zM15.005 14.648c0.191 0.255 0.308 0.574 0.314 0.921-0.035 0.349-0.108 0.669-0.216 0.971l-0.085 0.31c-0.142 0.437-0.242 0.945-0.278 1.47-0.003 0.040-0.004 0.062-0.004 0.085 0 0.191 0.071 0.365 0.189 0.497 0.272 0.266 0.843 0.231 1.508-0.032 0.28-0.108 0.52-0.229 0.746-0.371l-0.043-0.059c-0.116 0.041-0.25 0.068-0.389 0.075-0.135-0.006-0.433-0.066-0.433-0.634 0.050-0.555 0.161-1.066 0.327-1.552 0.126-0.363 0.227-0.838 0.27-1.33 0.002-0.038 0.003-0.055 0.003-0.072 0-0.133-0.020-0.262-0.057-0.384-0.091 0.007-0.201 0.005-0.312 0.005-0.543 0-1.078 0.036-1.602 0.105zM16.314 13.336c-0.021 0.001-0.046 0.002-0.072 0.002-0.378 0-0.722-0.141-0.984-0.373-0.246-0.229-0.4-0.556-0.4-0.919 0-0.007 0-0.015 0-0.022 0.003-0.41 0.204-0.774 0.511-1 0.288-0.224 0.651-0.358 1.045-0.358 0.017 0 0.033 0 0.050 0.001 0.023-0.002 0.053-0.002 0.082-0.002 0.356 0 0.685 0.119 0.948 0.319 0.247 0.212 0.405 0.529 0.405 0.883 0 0.019-0 0.039-0.001 0.058 0-0.002 0-0.002 0-0.001 0 0.402-0.178 0.763-0.46 1.007-0.281 0.253-0.654 0.407-1.062 0.407-0.022 0-0.044-0-0.066-0.001zM16.461 11.294c-0.011-0-0.024-0.001-0.036-0.001-0.254 0-0.487 0.088-0.672 0.234-0.153 0.113-0.254 0.295-0.255 0.5-0.001 0.010-0.001 0.022-0.001 0.034 0 0.176 0.072 0.335 0.189 0.449 0.15 0.125 0.344 0.201 0.557 0.201 0.025 0 0.050-0.001 0.074-0.003 0.009 0.001 0.023 0.001 0.037 0.001 0.249 0 0.477-0.094 0.648-0.249 0.16-0.127 0.263-0.32 0.269-0.538 0.001-0.016 0.002-0.033 0.002-0.050 0-0.163-0.072-0.309-0.187-0.408-0.154-0.108-0.344-0.173-0.55-0.173-0.027 0-0.053 0.001-0.079 0.003z"></path>
</symbol>
<symbol id="email" viewBox="0 0 32 32">
<path fill="#db001b" class="path1 fill-color1" d="M28.522 32h-25.183c-1.809 0-3.339-1.53-3.339-3.339v-15.165c0-0.974 0.417-1.948 1.113-2.504l11.548-9.878c1.809-1.53 4.452-1.53 6.261 0l11.687 9.878c0.696 0.557 1.113 1.53 1.113 2.504v15.304c0 1.67-1.391 3.2-3.2 3.2zM15.861 1.391c-0.835 0-1.53 0.278-2.226 0.835l-11.548 9.878c-0.417 0.278-0.696 0.835-0.696 1.391v15.165c0 1.113 0.835 1.948 1.948 1.948h25.183c1.113 0 1.948-0.835 1.948-1.948v-15.304c0-0.557-0.278-1.113-0.696-1.391l-11.687-9.739c-0.557-0.557-1.391-0.835-2.226-0.835z"></path>
<path fill="#db001b" class="path2 fill-color1" d="M15.722 22.678c-0.139 0-0.278 0-0.278-0.139l-12.383-6.957c-0.278-0.139-0.417-0.557-0.278-0.974 0.139-0.278 0.557-0.417 0.974-0.278l12.104 6.678 12.104-6.678c0.278-0.139 0.696 0 0.974 0.278 0.139 0.278 0 0.696-0.278 0.974l-12.383 6.957c-0.278 0.139-0.417 0.139-0.557 0.139z"></path>
<path fill="#db001b" class="path3 fill-color1" d="M23.513 18.087c-0.417 0-0.696-0.278-0.696-0.696v-6.4h-13.913v6.261c0 0.417-0.278 0.696-0.696 0.696s-0.696-0.278-0.696-0.696v-6.957c0-0.417 0.278-0.696 0.696-0.696h15.304c0.417 0 0.696 0.278 0.696 0.696v6.957c0 0.417-0.278 0.835-0.696 0.835z"></path>
<path fill="#db001b" class="path4 fill-color1" d="M20.174 14.609h-8.626c-0.417 0-0.696-0.278-0.696-0.696s0.278-0.696 0.696-0.696h8.626c0.417 0 0.696 0.278 0.696 0.696s-0.278 0.696-0.696 0.696z"></path>
<path fill="#db001b" class="path5 fill-color1" d="M20.174 17.113h-8.626c-0.417 0-0.696-0.278-0.696-0.696s0.278-0.696 0.696-0.696h8.626c0.417 0 0.696 0.278 0.696 0.696s-0.278 0.696-0.696 0.696z"></path>
</symbol>
<symbol id="location" viewBox="0 0 21 32">
<path fill="#db001b" class="path1 fill-color1" d="M10.574 32c-3.2 0-10.574-16.278-10.574-21.426 0.278-5.843 5.148-10.435 10.991-10.157 5.426 0.139 9.878 4.73 10.157 10.157v0c0 5.148-7.513 21.426-10.574 21.426zM10.574 1.809c-4.87 0-9.043 3.896-9.183 8.765 0 5.565 7.374 19.757 9.183 20.035 1.809-0.278 9.183-14.47 9.183-20.035-0.278-4.73-4.174-8.626-8.904-8.765-0.139 0-0.139 0-0.278 0zM10.574 16.835c-3.478 0-6.261-2.783-6.261-6.261 0-3.339 2.643-6.122 5.983-6.261v0h0.278c3.478 0 6.261 2.783 6.261 6.261s-2.783 6.261-6.261 6.261zM10.713 5.704h-0.139c-2.643 0-4.87 2.226-4.87 4.87s2.226 4.87 4.87 4.87c2.643 0 4.87-2.226 4.87-4.87s-2.087-4.87-4.73-4.87z"></path>
</symbol>
<symbol id="locations" viewBox="0 0 32 32">
<path fill="#db001b" class="path1 fill-color1" d="M16 32c-8.837 0-16-7.163-16-16s7.163-16 16-16c8.837 0 16 7.163 16 16-0.011 8.832-7.168 15.989-15.999 16zM16 0.627c-8.49 0-15.373 6.883-15.373 15.373s6.883 15.373 15.373 15.373c8.49 0 15.373-6.883 15.373-15.373-0.011-8.486-6.887-15.362-15.372-15.373zM16 24.157c-0.001 0-0.001 0-0.002 0-0.086 0-0.164-0.035-0.221-0.091-1.49-1.478-4.734-5.242-5.556-6.88-0.429-0.836-0.681-1.823-0.681-2.869 0-0.006 0-0.012 0-0.018 0-3.566 2.891-6.457 6.458-6.457s6.458 2.891 6.458 6.458c0 0.005 0 0.011 0 0.017 0 1.046-0.252 2.034-0.698 2.906-0.802 1.602-4.046 5.366-5.536 6.844-0.057 0.056-0.135 0.091-0.221 0.091-0.001 0-0.001 0-0.002 0zM16 8.471c-3.218 0.004-5.825 2.611-5.829 5.829 0.002 0.952 0.233 1.849 0.643 2.64 0.713 1.452 3.671 4.896 5.186 6.456 1.515-1.569 4.474-5.020 5.217-6.491 0.386-0.758 0.612-1.653 0.612-2.601 0-3.22-2.61-5.831-5.829-5.832zM18.042 17.415c-0 0-0.001 0-0.001 0-0.050 0-0.097-0.012-0.139-0.032l-1.902-0.922-1.904 0.925c-0.040 0.020-0.087 0.031-0.136 0.031-0.173 0-0.314-0.14-0.314-0.314 0-0.011 0.001-0.022 0.002-0.033l0.292-2.097-1.468-1.528c-0.054-0.056-0.088-0.133-0.088-0.218 0-0.154 0.112-0.283 0.259-0.309l2.085-0.37 0.998-1.882c0.054-0.099 0.157-0.165 0.276-0.165s0.222 0.066 0.275 0.163l0.998 1.884 2.086 0.37c0.149 0.026 0.261 0.155 0.261 0.309 0 0.085-0.034 0.162-0.088 0.218l-1.468 1.528 0.292 2.099c0.002 0.013 0.003 0.028 0.003 0.044 0 0.173-0.14 0.314-0.314 0.314-0.001 0-0.002 0-0.003-0zM16 15.796c0 0 0.001 0 0.001 0 0.050 0 0.097 0.012 0.139 0.032l1.513 0.733-0.232-1.666c-0.002-0.013-0.003-0.028-0.003-0.043 0-0.085 0.033-0.161 0.088-0.218l1.167-1.214-1.656-0.295c-0.097-0.017-0.177-0.077-0.222-0.158l-0.795-1.486-0.794 1.484c-0.046 0.083-0.126 0.143-0.221 0.16l-1.658 0.295 1.167 1.214c0.054 0.056 0.088 0.133 0.088 0.218 0 0.015-0.001 0.030-0.003 0.045l-0.232 1.664 1.515-0.734c0.040-0.020 0.087-0.031 0.137-0.031 0 0 0.001 0 0.001 0z"></path>
</symbol>
<symbol id="phone" viewBox="0 0 31 32">
<path fill="#db001b" class="path1 fill-color1" d="M27.067 32h-23.6c-1.867 0-3.467-1.6-3.467-3.6v-3.2c0-0.4 0.133-0.8 0.267-1.067l4.667-7.733c0.667-1.067 1.867-1.733 3.067-1.6h13.467c1.067 0 2.133 0.533 2.8 1.467l6 7.867c0.267 0.4 0.4 0.8 0.4 1.333v3.2c0 1.733-1.6 3.333-3.6 3.333zM8 16.133c-0.8 0-1.467 0.4-1.867 1.067l-4.667 7.733c-0.133 0-0.133 0.133-0.133 0.267v3.2c0 1.333 0.933 2.267 2.133 2.267h23.6c1.2 0 2.267-0.933 2.267-2.267v-3.067c0-0.133 0-0.267-0.133-0.4l-6-7.867c-0.4-0.533-1.067-0.933-1.733-0.933h-13.467c0 0 0 0 0 0z"></path>
<path fill="#db001b" class="path2 fill-color1" d="M14.533 15.6h-1.333v-3.467c0-0.533-0.533-1.067-1.067-1.067s-1.067 0.533-1.067 1.067v3.6h-1.333v-3.6c0-1.333 1.067-2.4 2.4-2.4s2.4 1.067 2.4 2.4v3.467z"></path>
<path fill="#db001b" class="path3 fill-color1" d="M20.933 15.6h-1.333v-3.467c0-0.533-0.533-1.067-1.067-1.067s-1.067 0.533-1.067 1.067v3.6h-1.333v-3.6c0-1.333 1.067-2.4 2.4-2.4s2.4 1.067 2.4 2.4v3.467z"></path>
<path fill="#db001b" class="path4 fill-color1" d="M15.333 28.8c-2.933 0-5.333-2.4-5.333-5.333s2.4-5.333 5.333-5.333c2.933 0 5.333 2.4 5.333 5.333s-2.4 5.333-5.333 5.333zM15.333 19.467c-2.267 0-4 1.733-4 4s1.733 4 4 4 4-1.733 4-4-1.733-4-4-4z"></path>
<path fill="#db001b" class="path5 fill-color1" d="M28.4 14.267l-6.4-2.4v-4.133c0-0.133-0.267-0.4-0.533-0.533-2-0.667-4-0.933-6.133-0.933-2.133-0.133-4.133 0.267-6.133 0.933-0.267 0.133-0.533 0.267-0.533 0.667v4l-6.4 2.4-0.267-0.4c-2.8-3.6-2.533-7.6 0.533-10 2.133-1.867 7.6-3.867 12.8-3.867s10.533 2 12.8 3.867c3.067 2.533 3.333 6.4 0.533 10l-0.267 0.4zM15.333 1.333c-4.8 0-10 1.867-12 3.6-2.4 2-2.667 4.8-0.667 7.733l4.667-1.733v-3.2c0.133-0.933 0.667-1.6 1.467-1.867 2.133-0.667 4.267-1.067 6.533-0.933 2.133-0.133 4.4 0.267 6.533 0.933 0.8 0.267 1.333 0.933 1.467 1.733v3.333l4.667 1.733c2-2.933 1.733-5.867-0.667-7.867v0c-2-1.6-7.2-3.467-12-3.467z"></path>
</symbol>
<symbol id="sale" viewBox="0 0 38 32">
<path fill="#fff" class="path1 fill-color2" d="M35.796 15.699c-0.025 0.029-0.040 0.067-0.040 0.108 0 0.006 0 0.012 0.001 0.017 0.107 1.049 0.199 2.118 0.271 3.179-1.877-1.114-4.945-2.187-6.181-2.597l3.421-0.883c0 0 0 0 0 0 0.075 0 0.138-0.049 0.158-0.117 0.283-0.961 0.563-1.933 0.836-2.875l0.107-0.364c1.307 0.562 2.56 1.135 3.247 1.536-0.623 0.642-1.233 1.313-1.819 1.996z"></path>
<path fill="#fff" class="path2 fill-color2" d="M19.093 31.669c-7.76-0.003-14.201-5.642-15.454-13.046 1.22-0.668 2.599-1.189 3.628-1.554 0.566 6.081 5.644 10.805 11.825 10.805 6.162 0 11.228-4.694 11.816-10.702 1.056 0.327 2.429 0.852 3.638 1.427-1.295 7.462-7.719 13.065-15.452 13.069z"></path>
<path fill="#fff" class="path3 fill-color2" d="M2.281 15.824c0.001-0.005 0.001-0.011 0.001-0.017 0-0.041-0.015-0.079-0.040-0.108-0.585-0.682-1.194-1.353-1.813-1.997 0.687-0.402 1.94-0.974 3.247-1.536l0.107 0.362c0.272 0.943 0.554 1.92 0.836 2.88 0.022 0.069 0.085 0.119 0.16 0.119 0.008 0 0.016-0.001 0.023-0.002l3.394 0.88c-1.236 0.411-4.304 1.484-6.181 2.597 0.067-1.061 0.158-2.129 0.267-3.179z"></path>
<path fill="#fff" class="path4 fill-color2" d="M30.178 4.921c1.195 1.192 2.199 2.576 2.962 4.101q-2.49-0.443-5.058-0.779c-2.187-2.528-5.4-4.119-8.984-4.119-3.574 0-6.778 1.581-8.952 4.082q-2.578 0.345-5.112 0.868c2.618-5.221 7.929-8.742 14.061-8.742 4.328 0 8.246 1.753 11.083 4.588z"></path>
<path fill="#fff" class="path5 fill-color2" d="M29.44 16.171l0.075-1.407q1.523 0.262 3.031 0.603z"></path>
<path fill="#fff" class="path6 fill-color2" d="M8.603 16.171l-3.106-0.805q1.507-0.339 3.031-0.603z"></path>
<path fill="#fff" class="path7 fill-color2" d="M18.992 7.857h0.053c5.271 0 10.542 0.668 15.665 1.872-0.26 0.886-0.519 1.813-0.771 2.679-0.258 0.892-0.524 1.764-0.79 2.673-4.231-1.051-9.093-1.662-14.094-1.678l-0.063-0c-4.751 0-9.493 0.612-14.105 1.696-0.268-0.909-0.533-1.802-0.791-2.694-0.251-0.869-0.51-1.813-0.77-2.694 4.701-1.165 10.101-1.84 15.657-1.854z"></path>
<path fill="#db001b" class="path8 fill-color1" d="M8.613 6.004c0.164 0.001 0.312 0.071 0.416 0.182l0.668 0.588c0.024 0.020 0.039 0.050 0.042 0.083 0 0.004 0.001 0.008 0.001 0.012 0 0.029-0.011 0.056-0.029 0.076-0.022 0.025-0.055 0.041-0.091 0.041-0.031 0-0.059-0.012-0.081-0.031l-0.668-0.588c-0.065-0.071-0.154-0.117-0.254-0.127-0.081 0.007-0.15 0.047-0.196 0.106l-0.292 0.33c0.029 0.057 0.065 0.106 0.107 0.148q0.065 0.068 0.178 0.167l0.618 0.544c0.021 0.018 0.034 0.044 0.035 0.073 0 0.002 0 0.004 0 0.006 0 0.028-0.011 0.053-0.028 0.072l-0.221 0.251c-0.020 0.022-0.048 0.036-0.080 0.036-0.027 0-0.051-0.010-0.070-0.026-0.021-0.018-0.034-0.044-0.035-0.073-0-0.002-0-0.003-0-0.005 0-0.027 0.010-0.052 0.027-0.071l0.133-0.15-0.546-0.481c-0.108-0.087-0.196-0.193-0.26-0.315l-0.099 0.101c-0.019 0.022-0.045 0.037-0.075 0.040-0.003 0-0.005 0-0.007 0-0.056 0-0.103-0.044-0.106-0.099-0-0.001-0-0.002-0-0.003 0-0.030 0.012-0.058 0.031-0.079l0.533-0.606c0.084-0.109 0.206-0.184 0.347-0.204z"></path>
<path fill="#db001b" class="path9 fill-color1" d="M9.173 5.319c0.034 0 0.064 0.015 0.085 0.038l0.92 0.977c0.021 0.022 0.034 0.051 0.034 0.084 0 0.001 0 0.002-0 0.003 0-0 0 0 0 0 0 0.033-0.014 0.063-0.037 0.084-0.022 0.022-0.052 0.036-0.086 0.036s-0.064-0.014-0.086-0.035l-0.919-0.977c-0.021-0.022-0.034-0.051-0.034-0.084 0-0.001 0-0.002 0-0.003 0 0 0-0 0-0 0-0.033 0.014-0.063 0.037-0.084 0.022-0.024 0.052-0.038 0.086-0.038z"></path>
<path fill="#db001b" class="path10 fill-color1" d="M10.525 4.195c0.053 0.006 0.095 0.051 0.095 0.106 0 0.004-0 0.009-0.001 0.013-0.004 0.029-0.019 0.054-0.041 0.071l-0.093 0.074c0.028 0.156 0.098 0.293 0.198 0.402l0.502 0.631c0.016 0.019 0.026 0.044 0.026 0.072 0 0.006-0 0.012-0.001 0.017-0.004 0.032-0.021 0.060-0.046 0.079-0.020 0.017-0.046 0.027-0.075 0.027-0.038 0-0.071-0.018-0.093-0.046l-0.509-0.64c-0.1-0.107-0.165-0.247-0.176-0.402l-0.627 0.497c-0.018 0.014-0.041 0.022-0.065 0.022-0.033 0-0.063-0.015-0.083-0.039-0.015-0.018-0.024-0.040-0.024-0.065 0-0.005 0-0.010 0.001-0.015 0.004-0.028 0.018-0.053 0.039-0.070l0.895-0.712c0.018-0.014 0.041-0.023 0.066-0.023 0.004 0 0.008 0 0.012 0.001z"></path>
<path fill="#db001b" class="path11 fill-color1" d="M11.093 3.812c0.033 0.006 0.060 0.025 0.078 0.052l0.747 1.116c0.013 0.019 0.021 0.043 0.021 0.068 0 0.008-0.001 0.016-0.002 0.023-0.005 0.032-0.024 0.059-0.050 0.076-0.019 0.013-0.043 0.021-0.068 0.021-0.042 0-0.079-0.021-0.101-0.054l-0.747-1.116c-0.013-0.019-0.021-0.043-0.021-0.068 0-0.008 0.001-0.016 0.002-0.023 0.006-0.032 0.024-0.059 0.051-0.076 0.019-0.013 0.042-0.021 0.067-0.021 0.008 0 0.016 0.001 0.024 0.002z"></path>
<path fill="#db001b" class="path12 fill-color1" d="M11.739 3.413c0.032 0.008 0.059 0.028 0.074 0.055l0.685 1.155c0.011 0.018 0.018 0.039 0.018 0.062 0 0.010-0.001 0.021-0.004 0.030-0.007 0.031-0.027 0.057-0.054 0.072-0.018 0.011-0.040 0.017-0.062 0.017-0.044 0-0.083-0.024-0.104-0.059l-0.685-1.155c-0.011-0.018-0.018-0.039-0.018-0.062 0-0.010 0.001-0.021 0.004-0.030 0.007-0.031 0.027-0.057 0.054-0.072 0.018-0.011 0.039-0.017 0.061-0.017 0.011 0 0.022 0.002 0.032 0.004z"></path>
<path fill="#db001b" class="path13 fill-color1" d="M12.927 2.784c0.043 0.014 0.073 0.054 0.073 0.101 0 0.012-0.002 0.023-0.005 0.034-0.009 0.027-0.029 0.048-0.054 0.061l-0.168 0.085c-0 0.008-0 0.018-0 0.027 0 0.15 0.042 0.29 0.114 0.41l0.363 0.716c0.008 0.015 0.013 0.034 0.013 0.053 0 0.014-0.002 0.027-0.007 0.039-0.010 0.030-0.032 0.054-0.060 0.068-0.017 0.009-0.035 0.014-0.055 0.014-0.046 0-0.086-0.027-0.105-0.065l-0.369-0.73c-0.060-0.098-0.096-0.216-0.096-0.343 0-0.029 0.002-0.058 0.006-0.087l-0.253 0.131c-0.014 0.007-0.030 0.011-0.047 0.011-0.041 0-0.077-0.023-0.095-0.057-0.008-0.014-0.012-0.030-0.012-0.048 0-0.013 0.002-0.025 0.007-0.036 0.009-0.026 0.027-0.047 0.051-0.060l0.619-0.313c0.016-0.009 0.034-0.015 0.054-0.015 0.009 0 0.018 0.001 0.026 0.003z"></path>
<path fill="#db001b" class="path14 fill-color1" d="M14.553 2.254c0.138 0.092 0.24 0.227 0.289 0.386l0.298 0.795c0.005 0.012 0.008 0.027 0.008 0.042s-0.003 0.029-0.009 0.042c-0.013 0.026-0.037 0.045-0.065 0.054l-0.559 0.214c-0.011 0.004-0.024 0.007-0.037 0.007-0.045 0-0.084-0.028-0.099-0.068-0.006-0.013-0.009-0.027-0.009-0.042s0.003-0.029 0.009-0.042c0.012-0.024 0.032-0.044 0.058-0.054l0.434-0.163-0.25-0.667c-0.028-0.091-0.067-0.17-0.116-0.242-0.031-0.043-0.081-0.075-0.137-0.086-0.013-0.001-0.025-0.002-0.038-0.002-0.058 0-0.114 0.012-0.164 0.035-0.103 0.042-0.193 0.106-0.266 0.185-0.076 0.074-0.138 0.161-0.183 0.258l0.345 0.934c0.006 0.014 0.010 0.029 0.010 0.046s-0.004 0.032-0.010 0.047c-0.013 0.029-0.037 0.051-0.067 0.062-0.014 0.005-0.028 0.008-0.044 0.008-0.051 0-0.094-0.032-0.11-0.077l-0.477-1.259c-0.006-0.014-0.009-0.030-0.009-0.046s0.003-0.033 0.010-0.047c0.012-0.029 0.036-0.051 0.066-0.062 0.014-0.005 0.028-0.008 0.044-0.008 0.052 0 0.096 0.033 0.114 0.078l0.043 0.115c0.053-0.101 0.119-0.186 0.199-0.259 0.084-0.082 0.183-0.146 0.293-0.19 0.066-0.031 0.136-0.047 0.211-0.047 0.080 0 0.156 0.019 0.223 0.054z"></path>
<path fill="#db001b" class="path15 fill-color1" d="M17.387 2.895c-0.12 0.141-0.29 0.236-0.483 0.257-0.058 0.014-0.121 0.021-0.186 0.021-0.142 0-0.276-0.037-0.393-0.101-0.149-0.095-0.254-0.255-0.276-0.44l-0.138-0.801c-0.001-0.007-0.002-0.015-0.002-0.023 0-0.026 0.008-0.049 0.022-0.069 0.017-0.026 0.045-0.044 0.077-0.049 0.007-0.001 0.014-0.002 0.022-0.002 0.060 0 0.11 0.043 0.12 0.1l0.138 0.799c0.013 0.13 0.085 0.24 0.188 0.306 0.077 0.040 0.166 0.063 0.26 0.063 0.046 0 0.091-0.006 0.134-0.016 0.125-0.013 0.237-0.075 0.316-0.167 0.049-0.069 0.078-0.154 0.078-0.246 0-0.038-0.005-0.074-0.014-0.109l-0.088-0.511c-0.004-0.056-0.029-0.106-0.067-0.142-0.027-0.017-0.061-0.028-0.096-0.028-0.017 0-0.033 0.002-0.048 0.006-0.052 0.011-0.098 0.039-0.131 0.078-0.042 0.051-0.071 0.113-0.082 0.182-0.005 0.025-0.015 0.044-0.029 0.060s-0.033 0.026-0.055 0.030c-0.007 0.001-0.014 0.002-0.021 0.002-0.023 0-0.044-0.008-0.060-0.021-0.022-0.018-0.038-0.043-0.042-0.073-0.001-0.006-0.001-0.013-0.001-0.019s0-0.013 0.001-0.020c0.004-0.076 0.029-0.147 0.069-0.207 0.039-0.058 0.089-0.108 0.147-0.147 0.053-0.036 0.113-0.062 0.178-0.074 0.034-0.008 0.070-0.012 0.107-0.012 0.074 0 0.145 0.017 0.208 0.047q0.124 0.065 0.167 0.312l0.085 0.498c0.010 0.042 0.015 0.090 0.015 0.139 0 0.139-0.045 0.268-0.12 0.373z"></path>
<path fill="#db001b" class="path16 fill-color1" d="M19.307 2.17c0.002 0.024 0.004 0.053 0.004 0.081 0 0.189-0.060 0.365-0.161 0.508-0.136 0.141-0.329 0.23-0.544 0.23-0.194 0-0.371-0.073-0.505-0.193-0.122-0.15-0.196-0.345-0.196-0.557 0-0.006 0-0.012 0-0.019-0-0.012-0.001-0.026-0.001-0.041 0-0.090 0.008-0.179 0.024-0.265 0.017-0.1 0.046-0.197 0.085-0.289l-0.11 0.009c-0.059 0-0.107-0.048-0.107-0.107-0-0.002-0-0.004-0-0.006 0-0.028 0.011-0.052 0.029-0.071 0.018-0.019 0.044-0.032 0.072-0.033l0.73-0.028q0.653-0.014 0.678 0.779zM19.069 2.178c0-0.007 0-0.016 0-0.024 0-0.151-0.040-0.293-0.109-0.415-0.063-0.078-0.163-0.131-0.275-0.131-0.018 0-0.035 0.001-0.052 0.004l-0.395 0.015c-0.037 0.078-0.064 0.169-0.076 0.265-0.012 0.080-0.019 0.167-0.019 0.255 0 0.024 0 0.049 0.002 0.073-0 0.003-0 0.011-0 0.019 0 0.153 0.048 0.295 0.129 0.411 0.074 0.082 0.183 0.135 0.304 0.135 0.017 0 0.034-0.001 0.051-0.003q0.466-0.020 0.446-0.604z"></path>
<path fill="#db001b" class="path17 fill-color1" d="M21.776 1.761c0.057 0.088 0.090 0.195 0.090 0.31 0 0.049-0.006 0.097-0.018 0.142l-0.127 0.88c-0.004 0.033-0.022 0.061-0.047 0.080-0.020 0.016-0.044 0.025-0.071 0.025-0.006 0-0.012-0.001-0.018-0.002-0.060-0.007-0.107-0.058-0.107-0.121 0-0.006 0-0.012 0.001-0.017l0.128-0.879c0.008-0.030 0.013-0.064 0.013-0.1 0-0.068-0.017-0.131-0.047-0.187-0.046-0.058-0.115-0.097-0.194-0.105l-0.435-0.063c-0.029 0.049-0.053 0.105-0.066 0.165q-0.022 0.096-0.044 0.245l-0.118 0.814c-0.004 0.029-0.020 0.054-0.042 0.070-0.018 0.013-0.040 0.021-0.063 0.021-0.006 0-0.012-0.001-0.018-0.001l-0.325-0.051c-0.052-0.008-0.091-0.052-0.091-0.105 0-0.005 0-0.010 0.001-0.015 0.004-0.029 0.020-0.054 0.042-0.070 0.018-0.013 0.039-0.021 0.063-0.021 0.005 0 0.011 0 0.016 0.001l0.199 0.029 0.107-0.72c0.015-0.148 0.061-0.282 0.13-0.401l-0.147-0.016c-0.031-0.004-0.057-0.019-0.076-0.041-0.013-0.018-0.021-0.040-0.021-0.064 0-0.035 0.017-0.066 0.042-0.085 0.018-0.013 0.041-0.020 0.065-0.020 0.007 0 0.014 0.001 0.020 0.002l0.798 0.116c0.145 0.012 0.272 0.081 0.36 0.184z"></path>
<path fill="#db001b" class="path18 fill-color1" d="M22.613 1.845c0.012 0.018 0.018 0.040 0.018 0.063 0 0.010-0.001 0.020-0.004 0.029l-0.164 0.681c-0.007 0.032-0.027 0.059-0.053 0.075-0.018 0.012-0.040 0.019-0.063 0.019-0.010 0-0.020-0.001-0.029-0.004-0.053-0.013-0.092-0.061-0.092-0.118 0-0.010 0.001-0.020 0.004-0.030l0.164-0.681c0.007-0.032 0.027-0.059 0.053-0.075 0.018-0.012 0.039-0.019 0.062-0.019 0.010 0 0.020 0.001 0.030 0.004 0.031 0.008 0.058 0.028 0.074 0.055z"></path>
<path fill="#db001b" class="path19 fill-color1" d="M23.316 2.038c0.009 0.017 0.015 0.036 0.015 0.057 0 0.013-0.002 0.025-0.006 0.036l-0.198 0.671c-0.009 0.031-0.030 0.057-0.057 0.072-0.017 0.010-0.037 0.016-0.058 0.016-0.012 0-0.024-0.002-0.035-0.005-0.050-0.015-0.086-0.062-0.086-0.116 0-0.012 0.002-0.024 0.005-0.036l0.198-0.671c0.009-0.031 0.030-0.057 0.057-0.072 0.017-0.010 0.037-0.016 0.058-0.016 0.012 0 0.024 0.002 0.035 0.005 0.031 0.009 0.057 0.030 0.071 0.058z"></path>
<path fill="#db001b" class="path20 fill-color1" d="M24.247 2.369c0.011 0.018 0.017 0.040 0.017 0.064 0 0.015-0.003 0.030-0.008 0.044l-0.301 0.83c-0.035 0.108-0.086 0.201-0.15 0.284-0.046 0.054-0.112 0.093-0.187 0.104-0.018 0.002-0.036 0.003-0.055 0.003-0.076 0-0.148-0.015-0.214-0.043l-0.111-0.027c-0.029-0.010-0.051-0.030-0.065-0.056-0.007-0.014-0.010-0.030-0.010-0.046 0-0.042 0.025-0.079 0.061-0.096 0.013-0.006 0.028-0.009 0.044-0.009s0.030 0.003 0.044 0.009l0.113 0.041c0.021 0.010 0.046 0.016 0.073 0.016 0.038 0 0.072-0.012 0.1-0.033 0.059-0.059 0.104-0.134 0.128-0.217l0.277-0.767-0.187-0.067c-0.029-0.010-0.051-0.030-0.065-0.056-0.007-0.014-0.010-0.030-0.010-0.046 0-0.042 0.025-0.079 0.061-0.096 0.013-0.006 0.028-0.009 0.044-0.009s0.030 0.003 0.044 0.009l0.263 0.095c0.039 0.012 0.071 0.037 0.092 0.070z"></path>
<path fill="#db001b" class="path21 fill-color1" d="M24.71 3.188c0.006 0.014 0.010 0.030 0.010 0.046s-0.004 0.033-0.010 0.047l-0.533 1.115c-0.014 0.029-0.038 0.052-0.067 0.063-0.014 0.006-0.030 0.010-0.047 0.010s-0.032-0.004-0.047-0.010c-0.041-0.020-0.069-0.061-0.069-0.11 0-0.019 0.004-0.037 0.012-0.053l0.533-1.115c0.014-0.029 0.038-0.052 0.067-0.063 0.014-0.006 0.030-0.010 0.047-0.010s0.032 0.004 0.047 0.010c0.027 0.014 0.047 0.039 0.057 0.068zM25.884 3.092c0.007 0.016 0.012 0.034 0.012 0.053s-0.004 0.038-0.012 0.054l-0.369 0.774c-0.058 0.151-0.172 0.269-0.316 0.33-0.049 0.015-0.101 0.023-0.155 0.023-0.093 0-0.18-0.024-0.255-0.065-0.061-0.029-0.115-0.063-0.166-0.101-0.018-0.015-0.034-0.037-0.042-0.062-0.003-0.010-0.005-0.020-0.005-0.031 0-0.016 0.004-0.031 0.010-0.044 0.014-0.027 0.038-0.048 0.068-0.056 0.009-0.003 0.019-0.004 0.029-0.004 0.023 0 0.044 0.008 0.060 0.021 0.020 0.015 0.040 0.030 0.062 0.045s0.047 0.029 0.074 0.041q0.26 0.123 0.415-0.201l0.338-0.709-0.867-0.413c-0.027-0.012-0.048-0.034-0.059-0.061-0.004-0.011-0.006-0.024-0.006-0.037 0-0.046 0.029-0.086 0.071-0.1 0.010-0.003 0.020-0.004 0.030-0.004 0.021 0 0.040 0.005 0.056 0.015l0.94 0.448c0.038 0.017 0.068 0.047 0.085 0.084z"></path>
<path fill="#db001b" class="path22 fill-color1" d="M26.567 5.227c-0.017 0.010-0.037 0.015-0.058 0.015-0.002 0-0.004-0-0.006-0-0.023-0.001-0.044-0.009-0.061-0.022-0.026-0.017-0.045-0.045-0.049-0.077-0.001-0.005-0.001-0.010-0.001-0.015 0-0.028 0.009-0.054 0.025-0.074 0.011-0.015 0.026-0.028 0.042-0.038l1.153-0.632-0.659-0.461c-0.028-0.016-0.049-0.042-0.059-0.073-0.001-0.004-0.001-0.008-0.001-0.012 0-0.029 0.011-0.056 0.028-0.076l0.205-0.292c0.018-0.026 0.045-0.045 0.077-0.051 0.008-0.002 0.017-0.003 0.025-0.003 0.023 0 0.044 0.007 0.061 0.019 0.025 0.017 0.042 0.044 0.045 0.075 0.001 0.007 0.002 0.015 0.002 0.022 0 0.026-0.008 0.050-0.023 0.069l-0.148 0.213 0.646 0.452c0.034 0.023 0.057 0.059 0.063 0.101 0.001 0.007 0.002 0.015 0.002 0.023 0 0.038-0.013 0.072-0.034 0.1-0.022 0.030-0.050 0.055-0.083 0.073z"></path>
<path fill="#db001b" class="path23 fill-color1" d="M28.921 5.44q0 0.247-0.269 0.553t-0.512 0.339c-0.016 0.001-0.035 0.002-0.053 0.002-0.174 0-0.33-0.072-0.442-0.187l-0.345-0.302c-0.022-0.019-0.037-0.045-0.041-0.075-0-0.003-0-0.005-0-0.007 0-0.056 0.044-0.103 0.099-0.106 0.001-0 0.003-0 0.004-0 0.030 0 0.057 0.011 0.078 0.030l0.344 0.302c0.066 0.066 0.157 0.107 0.258 0.107 0.022 0 0.043-0.002 0.064-0.006 0.147-0.046 0.271-0.136 0.359-0.254 0.108-0.104 0.183-0.24 0.21-0.391 0.001-0.010 0.001-0.016 0.001-0.022 0-0.118-0.056-0.223-0.143-0.29l-0.345-0.303c-0.022-0.019-0.037-0.045-0.041-0.075-0-0.003-0-0.005-0-0.007 0-0.056 0.044-0.103 0.099-0.106 0.001-0 0.003-0 0.004-0 0.030 0 0.057 0.011 0.078 0.030l0.344 0.302c0.145 0.108 0.24 0.276 0.248 0.466z"></path>
<path fill="#db001b" class="path24 fill-color1" d="M29.427 7.705c-0.003 0.057-0.049 0.101-0.107 0.101-0.002 0-0.004-0-0.006-0-0.029-0.002-0.055-0.016-0.073-0.036l-0.853-0.944c-0.016-0.019-0.026-0.043-0.026-0.069 0-0.059 0.048-0.107 0.107-0.107 0.002 0 0.003 0 0.005 0 0.029 0.002 0.054 0.015 0.072 0.035l0.599 0.665 0.587-0.523c0.056-0.049 0.101-0.108 0.134-0.175 0.014-0.030 0.021-0.061 0.021-0.093 0-0.025-0.004-0.048-0.012-0.070-0.027-0.070-0.066-0.131-0.115-0.183-0.047-0.052-0.096-0.1-0.148-0.144q-0.084-0.071-0.232-0.183c-0.023-0.017-0.039-0.043-0.043-0.073-0.001-0.005-0.001-0.011-0.001-0.016 0-0.025 0.008-0.048 0.023-0.066 0.018-0.020 0.043-0.033 0.072-0.034 0.002-0 0.005-0 0.008-0 0.028 0 0.054 0.009 0.075 0.024 0.154 0.107 0.289 0.225 0.41 0.356 0.083 0.085 0.147 0.185 0.19 0.296 0.014 0.041 0.021 0.081 0.021 0.122 0 0.053-0.011 0.104-0.031 0.149-0.052 0.104-0.124 0.193-0.211 0.264l-0.585 0.527 0.091 0.1c0.018 0.019 0.030 0.045 0.030 0.074 0 0.001 0 0.002-0 0.003z"></path>
<path fill="#db001b" class="path25 fill-color1" d="M5.76 19.641c-0.013 0.024-0.034 0.042-0.060 0.050l-0.58 0.173c-0.009 0.003-0.019 0.004-0.029 0.004-0.018 0-0.034-0.004-0.049-0.012-0.023-0.012-0.041-0.033-0.048-0.059-0.002-0.009-0.004-0.018-0.004-0.028 0-0.047 0.030-0.087 0.072-0.101l0.578-0.173c0.009-0.003 0.019-0.004 0.029-0.004 0.018 0 0.034 0.004 0.049 0.012 0.023 0.012 0.041 0.033 0.048 0.059 0.003 0.010 0.005 0.021 0.005 0.032 0 0.017-0.004 0.033-0.012 0.047zM6.038 19.351c0.007-0.024 0.024-0.044 0.045-0.054 0.010-0.005 0.022-0.007 0.034-0.007s0.024 0.003 0.034 0.007c0.023 0.009 0.042 0.026 0.054 0.047 0.033 0.061 0.069 0.138 0.101 0.217q0.057 0.142 0.089 0.248c0.031 0.088 0.049 0.19 0.049 0.296 0 0.013-0 0.026-0.001 0.039-0.006 0.082-0.042 0.156-0.097 0.212-0.069 0.063-0.154 0.11-0.249 0.135l-0.725 0.214c-0.009 0.003-0.019 0.004-0.029 0.004-0.018 0-0.034-0.004-0.049-0.012-0.023-0.012-0.041-0.033-0.048-0.059-0.002-0.009-0.004-0.018-0.004-0.028 0-0.047 0.030-0.087 0.072-0.101l0.722-0.214c0.065-0.016 0.121-0.047 0.167-0.088 0.034-0.035 0.056-0.084 0.056-0.138-0-0.080-0.014-0.157-0.039-0.228-0.052-0.16-0.113-0.301-0.185-0.435 0.001 0.001-0.003-0.013-0.003-0.028 0-0.010 0.002-0.020 0.004-0.029z"></path>
<path fill="#db001b" class="path26 fill-color1" d="M6.785 21.038c-0.010 0.031-0.034 0.056-0.064 0.067l-0.696 0.274c-0.078 0.034-0.168 0.056-0.263 0.061-0.006 0-0.011 0-0.015 0-0.062 0-0.119-0.022-0.164-0.058-0.054-0.050-0.096-0.114-0.121-0.185l-0.038-0.099c-0.004-0.011-0.007-0.023-0.007-0.036s0.003-0.026 0.007-0.037c0.013-0.032 0.044-0.055 0.080-0.055 0.014 0 0.027 0.003 0.038 0.009 0.022 0.011 0.040 0.030 0.048 0.053l0.038 0.097c0.015 0.051 0.055 0.089 0.106 0.101 0.009 0.001 0.019 0.001 0.029 0.001 0.068 0 0.131-0.016 0.188-0.044l0.638-0.252-0.062-0.157c-0.004-0.011-0.007-0.023-0.007-0.036s0.003-0.026 0.007-0.037c0.013-0.032 0.044-0.055 0.080-0.055 0.014 0 0.027 0.003 0.038 0.009 0.022 0.011 0.040 0.030 0.048 0.053l0.088 0.221c0.008 0.017 0.012 0.037 0.012 0.057 0 0.017-0.003 0.032-0.008 0.047z"></path>
<path fill="#db001b" class="path27 fill-color1" d="M7.338 22.4c-0.053 0.123-0.151 0.219-0.273 0.267l-0.676 0.337c-0.014 0.007-0.030 0.011-0.047 0.011-0.011 0-0.022-0.002-0.032-0.005-0.025-0.008-0.046-0.027-0.058-0.050-0.006-0.014-0.010-0.029-0.010-0.045 0-0.040 0.022-0.075 0.055-0.093l0.674-0.336c0.079-0.030 0.143-0.087 0.18-0.159 0.007-0.022 0.011-0.046 0.011-0.070 0-0.043-0.012-0.084-0.032-0.119l-0.166-0.332c-0.055 0.004-0.105 0.016-0.153 0.035q-0.071 0.029-0.186 0.085l-0.623 0.31c-0.010 0.005-0.022 0.007-0.035 0.007s-0.024-0.003-0.035-0.008-0.041-0.025-0.051-0.046l-0.122-0.25c-0.006-0.011-0.009-0.025-0.009-0.039 0-0.035 0.020-0.066 0.049-0.081 0.011-0.005 0.023-0.008 0.035-0.008s0.024 0.003 0.035 0.008 0.040 0.023 0.050 0.044l0.076 0.153 0.551-0.275c0.097-0.056 0.212-0.094 0.333-0.106l-0.052-0.107c-0.007-0.013-0.011-0.029-0.011-0.045 0-0.010 0.001-0.019 0.004-0.028 0.006-0.023 0.023-0.042 0.044-0.052 0.011-0.005 0.023-0.008 0.035-0.008s0.024 0.003 0.035 0.008c0.023 0.009 0.042 0.027 0.053 0.049l0.305 0.612c0.036 0.064 0.058 0.14 0.058 0.222 0 0.041-0.005 0.081-0.016 0.119z"></path>
<path fill="#db001b" class="path28 fill-color1" d="M8.138 23.7c-0.052 0.134-0.147 0.242-0.268 0.31l-0.601 0.392c-0.015 0.011-0.033 0.017-0.053 0.017-0.005 0-0.011-0-0.016-0.001-0.024-0.007-0.044-0.023-0.056-0.044l-0.275-0.427c-0.009-0.014-0.015-0.031-0.015-0.049 0-0.049 0.040-0.090 0.090-0.090 0.007 0 0.013 0.001 0.019 0.002 0.023 0.005 0.042 0.019 0.055 0.038l0.214 0.329 0.505-0.329c0.066-0.040 0.123-0.088 0.172-0.142 0.031-0.034 0.050-0.079 0.050-0.129 0-0.002-0-0.003-0-0.005-0.008-0.060-0.030-0.113-0.064-0.159-0.053-0.076-0.121-0.139-0.2-0.185-0.075-0.050-0.159-0.087-0.249-0.107l-0.709 0.458c-0.015 0.010-0.034 0.017-0.054 0.017-0.008 0-0.016-0.001-0.024-0.003-0.026-0.006-0.049-0.023-0.063-0.044-0.011-0.016-0.017-0.035-0.017-0.056 0-0.035 0.019-0.066 0.046-0.084l0.96-0.622c0.016-0.011 0.036-0.017 0.057-0.017 0.007 0 0.014 0.001 0.020 0.002 0.027 0.005 0.049 0.021 0.063 0.043 0.010 0.016 0.016 0.035 0.016 0.056 0 0.036-0.018 0.068-0.045 0.087l-0.087 0.057c0.096 0.026 0.179 0.066 0.253 0.119 0.083 0.055 0.154 0.126 0.209 0.209 0.051 0.070 0.081 0.154 0.081 0.245 0 0.040-0.006 0.078-0.016 0.114z"></path>
<path fill="#db001b" class="path29 fill-color1" d="M9.493 25.317c-0.018 0.137-0.089 0.254-0.193 0.331l-0.56 0.505c-0.019 0.017-0.043 0.027-0.071 0.027-0.001 0-0.002 0-0.003-0-0.028-0.001-0.053-0.013-0.070-0.033-0.016-0.018-0.025-0.042-0.025-0.069 0-0.030 0.012-0.057 0.032-0.077l0.555-0.509c0.067-0.048 0.114-0.119 0.132-0.202 0-0.003 0-0.005 0-0.006 0-0.066-0.027-0.127-0.071-0.17l-0.249-0.276c-0.051 0.019-0.096 0.044-0.136 0.074q-0.063 0.047-0.157 0.133l-0.517 0.466c-0.015 0.014-0.036 0.023-0.058 0.023-0.002 0-0.005-0-0.007-0-0.025-0.002-0.047-0.013-0.063-0.031l-0.189-0.213c-0.014-0.016-0.022-0.037-0.022-0.060 0-0.026 0.011-0.050 0.029-0.067 0.015-0.014 0.036-0.023 0.058-0.023 0.003 0 0.005 0 0.007 0 0.024 0.001 0.045 0.013 0.060 0.030l0.114 0.126 0.458-0.413c0.082-0.081 0.181-0.145 0.291-0.187l-0.076-0.094c-0.017-0.017-0.027-0.041-0.027-0.067 0-0 0-0.001 0-0.002 0-0.047 0.039-0.086 0.086-0.086 0.003 0 0.006 0 0.009 0 0.026 0.002 0.049 0.015 0.065 0.033l0.458 0.508c0.086 0.083 0.139 0.198 0.14 0.326z"></path>
<path fill="#db001b" class="path30 fill-color1" d="M10.016 25.698c0 0.001 0 0.003 0 0.005 0 0.027-0.011 0.051-0.028 0.069l-0.781 0.825c-0.018 0.019-0.043 0.031-0.071 0.033-0.002 0-0.004 0-0.006 0-0.026 0-0.050-0.011-0.067-0.028-0.018-0.019-0.029-0.045-0.029-0.073s0.011-0.054 0.029-0.073l0.781-0.824c0.018-0.019 0.043-0.031 0.071-0.033 0.002-0 0.003-0 0.005-0 0.026 0 0.050 0.011 0.068 0.028s0.028 0.042 0.028 0.069c0 0.001-0 0.003-0 0.004z"></path>
<path fill="#db001b" class="path31 fill-color1" d="M11.047 26.692c0 0.005 0 0.010 0 0.016 0 0.133-0.053 0.254-0.14 0.342l-0.474 0.584c-0.017 0.020-0.041 0.035-0.068 0.038-0.005 0.001-0.009 0.001-0.014 0.001-0.023 0-0.045-0.008-0.062-0.022-0.022-0.020-0.037-0.048-0.037-0.080 0-0.024 0.008-0.047 0.022-0.065l0.473-0.584c0.057-0.057 0.094-0.135 0.098-0.221-0.009-0.067-0.045-0.124-0.096-0.161l-0.29-0.234c-0.057 0.022-0.106 0.053-0.148 0.091-0.053 0.049-0.101 0.101-0.146 0.157l-0.429 0.523c-0.017 0.020-0.041 0.035-0.068 0.038-0.005 0.001-0.009 0.001-0.014 0.001-0.023 0-0.045-0.008-0.061-0.022-0.022-0.020-0.037-0.048-0.037-0.080 0-0.024 0.008-0.047 0.022-0.065l0.426-0.533c0.044-0.053 0.092-0.1 0.145-0.14 0.048-0.038 0.101-0.067 0.16-0.085l-0.073-0.057c-0.020-0.015-0.033-0.037-0.037-0.062-0.001-0.004-0.001-0.009-0.001-0.014 0-0.046 0.036-0.083 0.081-0.086 0.002-0 0.005-0 0.007-0 0.024 0 0.046 0.009 0.062 0.023l0.507 0.409c0.096 0.067 0.165 0.169 0.188 0.286z"></path>
<path fill="#db001b" class="path32 fill-color1" d="M12.185 27.52c0.004 0.027 0.006 0.058 0.006 0.090 0 0.152-0.049 0.293-0.133 0.408-0.090 0.164-0.243 0.287-0.426 0.338-0.035 0.006-0.069 0.008-0.104 0.008-0.164 0-0.315-0.055-0.436-0.147-0.087-0.055-0.163-0.118-0.231-0.189-0.015-0.014-0.025-0.033-0.027-0.054-0-0.003-0.001-0.006-0.001-0.010 0-0.046 0.034-0.084 0.079-0.090 0.004-0 0.007-0.001 0.011-0.001 0.024 0 0.045 0.009 0.061 0.024q0.065 0.064 0.107 0.1c0.029 0.025 0.060 0.049 0.094 0.070 0.090 0.072 0.202 0.114 0.323 0.114 0.025 0 0.050-0.002 0.075-0.005 0.134-0.047 0.245-0.142 0.31-0.264 0.069-0.091 0.11-0.203 0.11-0.325 0-0.014-0.001-0.028-0.002-0.042-0.022-0.118-0.096-0.217-0.196-0.273-0.070-0.051-0.156-0.081-0.249-0.081-0.004 0-0.009 0-0.013 0-0.081 0.007-0.151 0.053-0.19 0.119-0.031 0.036-0.050 0.082-0.050 0.133 0 0.020 0.003 0.039 0.008 0.057 0.021 0.046 0.054 0.084 0.095 0.111 0.026 0.015 0.054 0.026 0.084 0.033 0.027 0.008 0.047 0.016 0.067 0.025 0.018 0.010 0.033 0.033 0.033 0.058 0 0.016-0.006 0.031-0.015 0.042-0.019 0.029-0.052 0.047-0.088 0.047-0.011 0-0.022-0.002-0.032-0.005-0.060-0.012-0.114-0.035-0.162-0.067-0.076-0.050-0.138-0.12-0.177-0.202q-0.065-0.133 0.058-0.323c0.065-0.113 0.177-0.192 0.308-0.213 0.018-0.002 0.036-0.003 0.055-0.003 0.136 0 0.262 0.045 0.364 0.121 0.144 0.084 0.249 0.225 0.285 0.392z"></path>
<path fill="#db001b" class="path33 fill-color1" d="M12.956 27.799c0.005 0.012 0.008 0.026 0.008 0.041 0 0.019-0.005 0.037-0.014 0.053l-0.355 0.659c-0.042 0.083-0.095 0.153-0.159 0.213-0.046 0.043-0.106 0.069-0.173 0.071-0.080-0.004-0.153-0.028-0.216-0.066l-0.089-0.048c-0.023-0.012-0.040-0.031-0.048-0.055-0.003-0.009-0.005-0.019-0.005-0.029 0-0.040 0.028-0.074 0.065-0.084 0.008-0.002 0.016-0.003 0.025-0.003 0.018 0 0.034 0.005 0.049 0.013l0.090 0.049c0.023 0.015 0.050 0.024 0.080 0.024 0.025 0 0.048-0.006 0.068-0.017 0.058-0.043 0.104-0.1 0.134-0.166l0.328-0.609-0.148-0.080c-0.023-0.012-0.040-0.031-0.048-0.055-0.003-0.009-0.005-0.019-0.005-0.029 0-0.040 0.028-0.074 0.065-0.084 0.008-0.002 0.016-0.003 0.025-0.003 0.018 0 0.034 0.005 0.049 0.013l0.213 0.113c0.029 0.018 0.050 0.045 0.061 0.077z"></path>
<path fill="#db001b" class="path34 fill-color1" d="M14.254 28.48c0.014 0.044 0.022 0.094 0.022 0.146 0 0.087-0.023 0.168-0.062 0.238l-0.296 0.689c-0.011 0.025-0.030 0.044-0.055 0.055-0.012 0.006-0.025 0.009-0.040 0.009s-0.027-0.003-0.040-0.009c-0.036-0.017-0.060-0.054-0.060-0.096 0-0.014 0.003-0.028 0.008-0.040l0.297-0.69c0.027-0.048 0.044-0.105 0.044-0.165 0-0.026-0.003-0.052-0.009-0.077-0.026-0.058-0.075-0.104-0.136-0.126l-0.343-0.148c-0.036 0.035-0.067 0.076-0.090 0.12q-0.039 0.073-0.090 0.19l-0.276 0.64c-0.009 0.022-0.027 0.040-0.050 0.048-0.011 0.005-0.023 0.007-0.035 0.007s-0.024-0.003-0.035-0.007l-0.259-0.106c-0.032-0.015-0.053-0.047-0.053-0.083 0-0.012 0.002-0.024 0.007-0.035 0.009-0.022 0.027-0.039 0.049-0.047 0.011-0.005 0.022-0.007 0.035-0.007s0.024 0.003 0.035 0.007l0.156 0.067 0.244-0.565c0.045-0.115 0.11-0.214 0.191-0.296l-0.113-0.049c-0.024-0.010-0.042-0.028-0.052-0.051-0.005-0.011-0.008-0.023-0.008-0.036 0-0.038 0.024-0.069 0.057-0.081 0.011-0.005 0.024-0.007 0.037-0.007s0.026 0.003 0.037 0.007l0.627 0.271c0.113 0.041 0.203 0.122 0.255 0.226z"></path>
<path fill="#db001b" class="path35 fill-color1" d="M15.705 28.961c0.021 0.059 0.034 0.127 0.034 0.199 0 0.077-0.014 0.15-0.040 0.217l-0.204 0.681c-0.006 0.024-0.021 0.044-0.041 0.056-0.011 0.005-0.024 0.008-0.037 0.008s-0.026-0.003-0.037-0.008l-0.482-0.141c-0.037-0.011-0.064-0.046-0.064-0.086 0-0.034 0.019-0.064 0.048-0.079 0.012-0.007 0.027-0.011 0.042-0.011 0.009 0 0.018 0.001 0.027 0.004l0.375 0.113 0.174-0.577c0.023-0.066 0.037-0.141 0.039-0.22 0-0.003 0-0.005 0-0.007 0-0.049-0.019-0.094-0.049-0.128-0.041-0.038-0.092-0.065-0.148-0.079-0.052-0.014-0.108-0.022-0.167-0.022-0.040 0-0.079 0.004-0.117 0.011-0.093 0.012-0.18 0.041-0.259 0.083l-0.238 0.802c-0.007 0.026-0.025 0.048-0.049 0.059-0.015 0.008-0.031 0.012-0.049 0.012-0.011 0-0.021-0.002-0.030-0.004-0.041-0.012-0.071-0.050-0.071-0.095 0-0.011 0.002-0.021 0.005-0.031l0.328-1.092c0.008-0.027 0.026-0.048 0.049-0.062 0.014-0.009 0.031-0.013 0.049-0.013 0.011 0 0.021 0.002 0.030 0.005 0.042 0.014 0.072 0.054 0.072 0.101 0 0.010-0.001 0.019-0.004 0.028l-0.030 0.097c0.078-0.037 0.168-0.063 0.264-0.071 0.030-0.004 0.061-0.006 0.092-0.006 0.075 0 0.147 0.011 0.214 0.031 0.119 0.028 0.22 0.111 0.273 0.221z"></path>
<path fill="#db001b" class="path36 fill-color1" d="M16.63 29.245c-0.017-0.017-0.027-0.040-0.028-0.065s0.011-0.047 0.029-0.063c0.017-0.017 0.040-0.027 0.066-0.028 0.031-0.001 0.067-0.002 0.103-0.002 0.114 0 0.226 0.008 0.336 0.024 0.094 0.010 0.191 0.043 0.277 0.092 0.061 0.038 0.109 0.099 0.131 0.172 0.013 0.051 0.021 0.107 0.021 0.165 0 0.044-0.004 0.087-0.012 0.128l-0.106 0.742c-0.004 0.028-0.019 0.052-0.039 0.068-0.016 0.013-0.037 0.021-0.060 0.021-0.006 0-0.011-0-0.017-0.001-0.050-0.009-0.088-0.053-0.088-0.105 0-0.004 0-0.009 0.001-0.013l0.107-0.746c0.006-0.028 0.009-0.061 0.009-0.094s-0.003-0.066-0.010-0.097c-0.012-0.043-0.041-0.080-0.080-0.103-0.053-0.029-0.113-0.048-0.178-0.055-0.053-0.008-0.113-0.013-0.174-0.015q-0.090-0-0.216-0c-0.003 0-0.007 0.001-0.011 0.001-0.025 0-0.047-0.010-0.063-0.026z"></path>
<path fill="#db001b" class="path37 fill-color1" d="M19.049 30.507c-0.001 0.032-0.017 0.061-0.041 0.079-0.014 0.012-0.032 0.018-0.052 0.018-0.002 0-0.004-0-0.005-0-0.034-0-0.064-0.017-0.083-0.041l-0.588-0.747-0.243 0.682c-0.006 0.021-0.019 0.038-0.037 0.048-0.015 0.008-0.033 0.013-0.052 0.013-0.003 0-0.006-0-0.009-0 0 0-0 0-0.001 0-0.028 0-0.053-0.011-0.071-0.030-0.015-0.016-0.024-0.038-0.024-0.061 0-0.003 0-0.005 0-0.007 0-0.013 0.003-0.026 0.009-0.038l0.286-0.784-0.199-0.253c-0.012-0.016-0.020-0.035-0.020-0.057 0-0.003 0-0.006 0-0.009 0-0.029 0.014-0.055 0.034-0.072 0.018-0.013 0.040-0.022 0.064-0.022 0.001 0 0.003 0 0.004 0 0.031 0.001 0.059 0.016 0.076 0.039l0.509 0.64 0.304-0.586c0.014-0.031 0.045-0.053 0.080-0.053 0.003 0 0.007 0 0.010 0.001 0.018 0.001 0.034 0.006 0.049 0.014 0.029 0.014 0.050 0.044 0.050 0.079 0 0.002-0 0.004-0 0.006-0.001 0.020-0.007 0.038-0.016 0.054l-0.347 0.652 0.293 0.369c0.012 0.015 0.020 0.035 0.020 0.056 0 0.003-0 0.007-0.001 0.010z"></path>
<path fill="#db001b" class="path38 fill-color1" d="M19.578 29.278c0.019 0.018 0.032 0.043 0.032 0.071l0.034 1.135c0 0.001 0 0.002 0 0.003 0 0.027-0.010 0.052-0.027 0.071s-0.042 0.032-0.070 0.032c-0 0-0 0-0 0-0.057 0-0.103-0.044-0.106-0.1l-0.034-1.135c-0-0.001-0-0.002-0-0.003 0-0.027 0.010-0.052 0.027-0.071s0.042-0.032 0.070-0.032c0.001-0 0.003-0 0.005-0 0.027 0 0.052 0.011 0.070 0.029z"></path>
<path fill="#db001b" class="path39 fill-color1" d="M20.16 29.245c0.020 0.017 0.034 0.042 0.035 0.070l0.083 1.133c0 0.002 0 0.005 0 0.008 0 0.026-0.009 0.049-0.024 0.067-0.017 0.020-0.041 0.033-0.069 0.035-0 0-0.001 0-0.001 0-0.055 0-0.1-0.041-0.106-0.094l-0.087-1.13c-0-0.002-0-0.005-0-0.008 0-0.026 0.009-0.049 0.024-0.067 0.017-0.020 0.041-0.033 0.069-0.035 0.004-0.001 0.009-0.001 0.013-0.001 0.024 0 0.046 0.008 0.063 0.022z"></path>
<path fill="#db001b" class="path40 fill-color1" d="M21.765 30.262c0.002 0.006 0.002 0.013 0.002 0.021s-0.001 0.015-0.003 0.021c-0.007 0.019-0.021 0.035-0.039 0.044-0.024 0.012-0.051 0.020-0.080 0.024l-0.881 0.129c-0.005 0.001-0.010 0.001-0.016 0.001-0.046 0-0.083-0.033-0.090-0.077-0.001-0.005-0.001-0.010-0.001-0.015 0-0.020 0.007-0.038 0.018-0.053 0.014-0.018 0.034-0.031 0.058-0.034l0.725-0.107-0.966-0.864c-0.016-0.014-0.027-0.033-0.031-0.054-0.001-0.005-0.001-0.009-0.001-0.014 0-0.029 0.012-0.056 0.031-0.075 0.014-0.015 0.033-0.025 0.054-0.029 0.006-0.001 0.011-0.002 0.017-0.002 0.028 0 0.053 0.011 0.071 0.029l0.589 0.533 0.17-0.618c0.012-0.036 0.042-0.063 0.079-0.070 0.005-0.001 0.010-0.001 0.015-0.001 0.014 0 0.027 0.003 0.038 0.008 0.017 0.007 0.033 0.019 0.044 0.034 0.012 0.017 0.019 0.038 0.019 0.061 0 0.012-0.002 0.023-0.005 0.033l-0.198 0.698 0.331 0.298c0.025 0.019 0.043 0.046 0.051 0.077z"></path>
<path fill="#db001b" class="path41 fill-color1" d="M23.487 28.65c0.11 0.072 0.188 0.185 0.213 0.317l0.221 0.723c0.003 0.009 0.005 0.020 0.005 0.031 0 0.017-0.004 0.033-0.011 0.048-0.012 0.024-0.033 0.042-0.059 0.049-0.009 0.003-0.019 0.004-0.029 0.004-0.047 0-0.086-0.030-0.101-0.071l-0.221-0.721c-0.016-0.085-0.063-0.156-0.127-0.205-0.031-0.016-0.068-0.025-0.106-0.025-0.030 0-0.058 0.005-0.084 0.015l-0.354 0.106c-0.001 0.014-0.002 0.030-0.002 0.046 0 0.038 0.004 0.075 0.012 0.11q0.016 0.075 0.054 0.197l0.204 0.667c0.003 0.008 0.004 0.017 0.004 0.026 0 0.016-0.004 0.031-0.012 0.043-0.011 0.021-0.031 0.036-0.054 0.043l-0.27 0.083c-0.006 0.001-0.013 0.002-0.020 0.002-0.040 0-0.074-0.026-0.087-0.061-0.003-0.009-0.004-0.018-0.004-0.027 0-0.016 0.004-0.031 0.012-0.043 0.011-0.020 0.029-0.035 0.051-0.042l0.164-0.050-0.18-0.589c-0.031-0.084-0.048-0.182-0.048-0.283 0-0.023 0.001-0.046 0.003-0.069l-0.118 0.039c-0.011 0.004-0.023 0.007-0.036 0.007s-0.026-0.003-0.037-0.007c-0.029-0.014-0.049-0.044-0.049-0.078 0-0.016 0.004-0.031 0.012-0.044 0.012-0.021 0.033-0.037 0.057-0.044l0.654-0.2c0.050-0.021 0.108-0.033 0.169-0.033 0.063 0 0.123 0.013 0.177 0.036z"></path>
<path fill="#db001b" class="path42 fill-color1" d="M24.055 28.332c0.025 0.011 0.045 0.031 0.054 0.056l0.424 1.052c0.005 0.012 0.008 0.025 0.008 0.039s-0.003 0.028-0.008 0.040c-0.010 0.024-0.030 0.044-0.055 0.053-0.011 0.004-0.024 0.006-0.036 0.006-0.043 0-0.081-0.026-0.097-0.063l-0.418-1.057c-0.005-0.012-0.008-0.025-0.008-0.039s0.003-0.028 0.008-0.040c0.010-0.024 0.030-0.044 0.055-0.053 0.010-0.003 0.020-0.005 0.031-0.005 0.016 0 0.031 0.004 0.044 0.010z"></path>
<path fill="#db001b" class="path43 fill-color1" d="M24.58 28.107c0.026 0.010 0.047 0.029 0.057 0.054l0.242 0.543c0.005 0.012 0.007 0.025 0.007 0.039s-0.003 0.027-0.008 0.040c-0.009 0.025-0.028 0.045-0.052 0.056-0.013 0.005-0.026 0.008-0.041 0.008-0.042 0-0.078-0.024-0.096-0.060l-0.242-0.543c-0.005-0.012-0.007-0.025-0.007-0.039s0.003-0.027 0.008-0.040c0.009-0.025 0.028-0.045 0.052-0.056 0.013-0.006 0.027-0.010 0.043-0.010 0.013 0 0.026 0.003 0.038 0.007z"></path>
<path fill="#db001b" class="path44 fill-color1" d="M24.945 28.139c-0.025-0.004-0.046-0.017-0.061-0.036-0.010-0.014-0.016-0.031-0.016-0.050 0-0.006 0.001-0.012 0.002-0.018 0.004-0.025 0.018-0.047 0.037-0.061 0.103-0.083 0.219-0.161 0.341-0.228 0.094-0.055 0.19-0.088 0.292-0.101 0.011-0.001 0.021-0.001 0.030-0.001 0.071 0 0.136 0.024 0.188 0.064 0.072 0.061 0.132 0.136 0.174 0.222l0.354 0.666c0.008 0.014 0.012 0.032 0.012 0.050 0 0.010-0.001 0.020-0.004 0.029-0.007 0.026-0.025 0.048-0.048 0.060-0.014 0.007-0.031 0.011-0.048 0.011-0.039 0-0.074-0.021-0.092-0.053l-0.352-0.663c-0.028-0.059-0.066-0.109-0.113-0.15-0.030-0.024-0.068-0.039-0.11-0.039-0.006 0-0.013 0-0.019 0.001-0.065 0.010-0.125 0.032-0.177 0.063-0.056 0.030-0.105 0.060-0.152 0.093q-0.068 0.047-0.167 0.123c-0.015 0.013-0.035 0.020-0.056 0.020-0.005 0-0.010-0-0.015-0.001z"></path>
<path fill="#db001b" class="path45 fill-color1" d="M26.773 27.024c0.315 0.158 0.532 0.471 0.551 0.836-0.030 0.16-0.127 0.29-0.26 0.364l-0.323 0.215c-0.015 0.011-0.035 0.017-0.055 0.017-0.006 0-0.011-0-0.017-0.001-0.041-0.007-0.073-0.042-0.073-0.085 0-0.008 0.001-0.015 0.003-0.022 0.006-0.024 0.022-0.045 0.042-0.058l0.32-0.214c0.087-0.050 0.146-0.138 0.156-0.241-0.029-0.264-0.181-0.486-0.397-0.609-0.033-0.012-0.066-0.018-0.101-0.018-0.070 0-0.135 0.023-0.188 0.063l-0.319 0.213c-0.015 0.011-0.035 0.017-0.055 0.017-0.006 0-0.011-0-0.017-0.001-0.041-0.007-0.073-0.042-0.073-0.085 0-0.008 0.001-0.015 0.003-0.022 0.006-0.024 0.022-0.045 0.042-0.058l0.32-0.214c0.088-0.069 0.2-0.11 0.321-0.11 0.042 0 0.082 0.005 0.121 0.014z"></path>
<path fill="#db001b" class="path46 fill-color1" d="M27.766 26.055c0.023-0.009 0.049-0.014 0.076-0.014s0.054 0.005 0.078 0.015c0.075 0.032 0.139 0.082 0.186 0.146l0.576 0.677c0.014 0.018 0.023 0.041 0.023 0.066 0 0.031-0.013 0.059-0.035 0.079-0.017 0.015-0.039 0.024-0.064 0.024-0.004 0-0.008-0-0.012-0.001-0.028-0.002-0.052-0.016-0.069-0.036l-0.096-0.113c0.001 0.019 0.002 0.041 0.002 0.063 0 0.063-0.006 0.125-0.017 0.184-0.011 0.065-0.047 0.127-0.098 0.172-0.021 0.019-0.047 0.031-0.077 0.032-0.001 0-0.002 0-0.002 0-0.028 0-0.053-0.013-0.069-0.034-0.015-0.017-0.025-0.039-0.025-0.064s0.009-0.047 0.025-0.064c0.054-0.054 0.095-0.122 0.117-0.198 0.013-0.048 0.019-0.099 0.019-0.151 0-0.034-0.003-0.067-0.008-0.1l-0.352-0.417c-0.025-0.038-0.062-0.066-0.105-0.080-0.002-0-0.004-0-0.005-0-0.037 0-0.071 0.015-0.095 0.040-0.016 0.014-0.030 0.030-0.042 0.047-0.015 0.019-0.028 0.040-0.039 0.062-0.006 0.010-0.011 0.016-0.017 0.021-0.012 0.010-0.028 0.017-0.046 0.017-0.003 0-0.005-0-0.008-0-0.023-0.002-0.044-0.013-0.057-0.031-0.014-0.015-0.023-0.036-0.023-0.058 0-0.013 0.003-0.025 0.008-0.037 0.015-0.031 0.031-0.059 0.051-0.084 0.020-0.027 0.042-0.052 0.067-0.074 0.038-0.035 0.081-0.064 0.127-0.087z"></path>
<path fill="#db001b" class="path47 fill-color1" d="M28.298 25.587c0.029 0 0.054 0.012 0.072 0.032l0.782 0.824c0.018 0.019 0.029 0.044 0.029 0.073 0 0 0 0.001 0 0.001 0 0.028-0.012 0.053-0.031 0.071s-0.045 0.029-0.073 0.029-0.054-0.011-0.073-0.029l-0.782-0.823c-0.018-0.019-0.029-0.044-0.029-0.073 0-0 0-0.001 0-0.001 0-0.028 0.012-0.053 0.031-0.070 0.018-0.020 0.044-0.032 0.073-0.032 0 0 0 0 0.001 0z"></path>
<path fill="#db001b" class="path48 fill-color1" d="M29.037 24.833c0.001-0 0.002-0 0.003-0 0.049 0 0.088 0.039 0.090 0.087 0 0.001 0 0.001 0 0.002 0 0.025-0.010 0.047-0.026 0.063l-0.107 0.115c0.041 0.126 0.115 0.232 0.212 0.312l0.498 0.469c0.019 0.018 0.031 0.043 0.031 0.071 0 0 0 0.001 0 0.001-0 0.028-0.011 0.054-0.029 0.073s-0.043 0.030-0.071 0.030-0.053-0.012-0.071-0.030l-0.503-0.475c-0.098-0.079-0.168-0.19-0.196-0.316l-0.165 0.171c-0.016 0.016-0.039 0.026-0.063 0.026s-0.047-0.010-0.064-0.026c-0.017-0.016-0.028-0.038-0.028-0.063-0-0.001-0-0.001-0-0.002 0-0.024 0.009-0.045 0.025-0.061l0.402-0.427c0.015-0.013 0.035-0.020 0.057-0.020 0.002 0 0.003 0 0.005 0z"></path>
<path fill="#db001b" class="path49 fill-color1" d="M29.669 24.051c0.004-0.001 0.009-0.001 0.014-0.001 0.023 0 0.045 0.008 0.062 0.021l0.899 0.693c0.021 0.016 0.035 0.040 0.039 0.067 0.001 0.005 0.001 0.011 0.001 0.016 0 0.023-0.008 0.044-0.022 0.060-0.020 0.023-0.049 0.038-0.082 0.038-0.023 0-0.045-0.008-0.063-0.020l-0.899-0.693c-0.021-0.016-0.035-0.040-0.039-0.067-0.001-0.005-0.001-0.010-0.001-0.016 0-0.023 0.008-0.044 0.022-0.061 0.016-0.021 0.040-0.035 0.068-0.038z"></path>
<path fill="#db001b" class="path50 fill-color1" d="M31.157 24.117c0.009 0.015 0.014 0.032 0.014 0.051 0 0.001 0 0.002-0 0.003-0.001 0.019-0.007 0.037-0.017 0.052-0.014 0.022-0.037 0.038-0.064 0.042-0.005 0.001-0.010 0.001-0.015 0.001-0.023 0-0.044-0.007-0.061-0.019-0.013-0.009-0.024-0.021-0.032-0.034l-0.554-0.96-0.38 0.565c-0.013 0.024-0.035 0.043-0.061 0.051-0.005 0.001-0.009 0.001-0.013 0.001-0.024 0-0.045-0.008-0.062-0.022l-0.25-0.168c-0.022-0.015-0.038-0.038-0.045-0.064-0.002-0.007-0.003-0.015-0.003-0.023 0-0.019 0.006-0.036 0.016-0.051 0.014-0.020 0.037-0.035 0.062-0.039 0.007-0.002 0.014-0.002 0.022-0.002 0.021 0 0.040 0.006 0.056 0.017l0.182 0.122 0.372-0.555c0.019-0.029 0.049-0.050 0.084-0.055 0.008-0.001 0.017-0.002 0.025-0.002 0.031 0 0.059 0.010 0.083 0.027 0.026 0.018 0.048 0.041 0.063 0.068z"></path>
<path fill="#db001b" class="path51 fill-color1" d="M32.107 22.293c0.008-0.002 0.017-0.004 0.026-0.004 0.041 0 0.075 0.027 0.086 0.064 0.002 0.008 0.004 0.016 0.004 0.025 0 0.017-0.004 0.032-0.012 0.045l-0.511 0.946c-0.016 0.028-0.046 0.046-0.080 0.046-0.015 0-0.030-0.004-0.042-0.010-0.021-0.011-0.037-0.030-0.043-0.054-0.002-0.008-0.004-0.016-0.004-0.025 0-0.016 0.004-0.030 0.011-0.043l0.359-0.666-0.586-0.32c-0.051-0.031-0.111-0.053-0.176-0.063-0.008-0.001-0.014-0.001-0.019-0.001-0.043 0-0.082 0.015-0.113 0.039-0.046 0.041-0.084 0.090-0.111 0.145-0.026 0.047-0.051 0.1-0.072 0.155q-0.035 0.093-0.083 0.244c-0.008 0.024-0.024 0.044-0.045 0.055-0.013 0.007-0.027 0.011-0.043 0.011-0.010 0-0.020-0.002-0.029-0.005-0.022-0.008-0.039-0.026-0.047-0.047-0.004-0.011-0.007-0.024-0.007-0.037s0.002-0.025 0.007-0.037c0.044-0.162 0.102-0.304 0.174-0.437 0.041-0.082 0.103-0.161 0.178-0.224 0.054-0.042 0.121-0.067 0.193-0.067 0.007 0 0.015 0 0.022 0.001 0.101 0.012 0.194 0.044 0.275 0.093l0.583 0.318 0.054-0.1c0.010-0.022 0.027-0.040 0.050-0.049z"></path>
<path fill="#db001b" class="path52 fill-color1" d="M31.591 20.597c0.014-0.007 0.030-0.011 0.047-0.011s0.033 0.004 0.048 0.011l0.67 0.276c0.13 0.041 0.235 0.131 0.294 0.248 0.018 0.048 0.028 0.101 0.028 0.155 0 0.069-0.016 0.135-0.044 0.194-0.022 0.053-0.048 0.101-0.078 0.145-0.011 0.015-0.029 0.029-0.051 0.037-0.010 0.004-0.021 0.006-0.032 0.006s-0.022-0.002-0.032-0.006c-0.024-0.010-0.043-0.030-0.050-0.055-0.003-0.009-0.005-0.019-0.005-0.029 0-0.017 0.006-0.033 0.015-0.047 0.012-0.018 0.023-0.036 0.034-0.054s0.022-0.041 0.032-0.064q0.092-0.226-0.19-0.341l-0.615-0.265-0.309 0.752c-0.009 0.024-0.027 0.043-0.050 0.053-0.011 0.006-0.024 0.009-0.038 0.009-0.037 0-0.069-0.024-0.081-0.057-0.005-0.011-0.007-0.024-0.007-0.037s0.003-0.026 0.007-0.037l0.336-0.815c0.014-0.031 0.039-0.056 0.070-0.070zM31.726 21.581c0.012-0.005 0.025-0.008 0.039-0.008s0.028 0.003 0.040 0.008l0.967 0.398c0.025 0.011 0.045 0.030 0.056 0.054 0.006 0.012 0.009 0.026 0.009 0.040s-0.003 0.027-0.009 0.040c-0.017 0.037-0.054 0.063-0.097 0.063-0.013 0-0.026-0.002-0.038-0.007l-0.967-0.398c-0.025-0.011-0.045-0.030-0.056-0.054-0.006-0.012-0.009-0.026-0.009-0.040s0.003-0.027 0.009-0.040c0.010-0.025 0.030-0.045 0.055-0.056z"></path>
<path fill="#db001b" class="path53 fill-color1" d="M32.092 19.228c0.060-0.028 0.13-0.045 0.205-0.045 0.065 0 0.126 0.013 0.183 0.035l0.72 0.207c0.026 0.008 0.048 0.025 0.062 0.048 0.009 0.015 0.014 0.032 0.014 0.050 0 0.010-0.001 0.019-0.004 0.028-0.014 0.043-0.054 0.073-0.101 0.073-0.009 0-0.019-0.001-0.027-0.004l-0.721-0.207c-0.036-0.014-0.078-0.023-0.121-0.023s-0.085 0.008-0.123 0.023c-0.052 0.033-0.091 0.087-0.104 0.15l-0.107 0.359c0.038 0.031 0.082 0.056 0.13 0.075q0.078 0.030 0.201 0.065l0.67 0.192c0.024 0.006 0.043 0.022 0.054 0.043 0.007 0.013 0.011 0.027 0.011 0.043 0 0.010-0.002 0.019-0.004 0.028l-0.078 0.27c-0.012 0.037-0.047 0.064-0.087 0.064-0.007 0-0.013-0.001-0.020-0.002-0.023-0.006-0.043-0.022-0.054-0.043-0.007-0.013-0.011-0.027-0.011-0.043 0-0.009 0.001-0.017 0.004-0.025l0.047-0.163-0.592-0.17c-0.122-0.030-0.23-0.082-0.322-0.153l-0.032 0.12c-0.007 0.025-0.022 0.046-0.043 0.058-0.013 0.008-0.029 0.013-0.046 0.013-0.034 0-0.063-0.019-0.077-0.047-0.007-0.013-0.011-0.029-0.011-0.045 0-0.010 0.002-0.020 0.004-0.029l0.189-0.656c0.025-0.122 0.096-0.224 0.194-0.289z"></path>
<path fill="#db001b" class="path54 fill-color1" d="M38.036 13.653c-0.006-0.051-0.035-0.094-0.075-0.12-0.641-0.41-1.985-1.029-3.394-1.637-0.020-0.076-0.039-0.151-0.061-0.227 0.188-0.65 0.379-1.306 0.57-1.955 0.004-0.014 0.007-0.030 0.007-0.046 0-0.077-0.054-0.14-0.126-0.156-0.455-0.107-0.911-0.213-1.367-0.308-2.625-5.477-8.125-9.192-14.493-9.192-6.352 0-11.84 3.696-14.432 9.055-0.557 0.202-1.072 0.32-1.584 0.441-0.045 0.007-0.083 0.033-0.106 0.070-0.013 0.024-0.021 0.052-0.021 0.081 0 0.017 0.003 0.033 0.007 0.049 0.213 0.708 0.417 1.427 0.622 2.132-1.449 0.627-2.847 1.269-3.505 1.69-0.046 0.030-0.077 0.081-0.077 0.14 0 0.045 0.018 0.086 0.047 0.115 0.646 0.667 1.28 1.365 1.898 2.077-0.116 1.137-0.213 2.293-0.286 3.44-0 0.003-0 0.007-0 0.011 0 0.091 0.074 0.165 0.165 0.165 0.033 0 0.064-0.010 0.090-0.026 0.386-0.246 0.847-0.503 1.324-0.734 1.41 7.575 7.968 13.289 15.859 13.289 4.421 0 8.423-1.793 11.318-4.691 2.266-2.254 3.856-5.186 4.438-8.466 0.519 0.151 0.932 0.384 1.332 0.637-0.030-0.017 0-0.007 0.033-0.007 0.091 0 0.165-0.074 0.165-0.165 0-0.004-0-0.008-0-0.012-0.074-1.146-0.17-2.302-0.286-3.439 0.612-0.711 1.251-1.41 1.898-2.077 0.027-0.029 0.043-0.068 0.043-0.111 0-0.007-0.001-0.015-0.001-0.022zM35.796 15.702c-0.025 0.029-0.040 0.067-0.040 0.108 0 0.006 0 0.012 0.001 0.017 0.107 1.049 0.199 2.118 0.271 3.179-1.877-1.114-4.945-2.187-6.181-2.597l3.421-0.883c0 0 0 0 0 0 0.075 0 0.138-0.049 0.158-0.117 0.283-0.961 0.563-1.933 0.836-2.875l0.107-0.364c1.307 0.562 2.56 1.135 3.247 1.536-0.623 0.639-1.233 1.31-1.819 1.993zM19.093 31.669c-7.76-0.003-14.201-5.642-15.454-13.046 1.22-0.668 2.599-1.189 3.628-1.554 0.566 6.081 5.644 10.805 11.825 10.805 6.162 0 11.228-4.694 11.816-10.702 1.056 0.327 2.429 0.852 3.638 1.427-1.295 7.462-7.719 13.065-15.452 13.069zM2.281 15.824c0.001-0.005 0.001-0.011 0.001-0.017 0-0.041-0.015-0.079-0.040-0.108-0.585-0.682-1.194-1.353-1.813-1.997 0.687-0.402 1.94-0.974 3.247-1.536l0.107 0.362c0.272 0.943 0.554 1.92 0.836 2.88 0.022 0.069 0.085 0.119 0.16 0.119 0.008 0 0.016-0.001 0.023-0.002l3.394 0.88c-1.236 0.411-4.304 1.484-6.181 2.597 0.067-1.061 0.158-2.129 0.267-3.179zM30.178 4.921c1.195 1.192 2.199 2.576 2.962 4.101q-2.49-0.443-5.058-0.779c-2.187-2.528-5.4-4.119-8.984-4.119-3.574 0-6.778 1.581-8.952 4.082q-2.578 0.345-5.112 0.868c2.618-5.221 7.929-8.742 14.061-8.742 4.328 0 8.246 1.753 11.083 4.588zM27.582 8.121c-2.83-0.352-5.682-0.587-8.533-0.587h-0.053c-2.794 0-5.585 0.228-8.356 0.564 2.111-2.281 5.121-3.704 8.463-3.704 3.353 0 6.371 1.432 8.476 3.718zM18.992 7.854h0.053c5.271 0 10.542 0.668 15.665 1.872-0.26 0.886-0.519 1.813-0.771 2.679-0.258 0.892-0.524 1.764-0.79 2.673-4.231-1.051-9.093-1.662-14.094-1.678l-0.063-0c-4.751 0-9.493 0.612-14.105 1.696-0.268-0.909-0.533-1.802-0.791-2.694-0.251-0.869-0.51-1.813-0.77-2.694 4.701-1.164 10.102-1.838 15.658-1.851zM29.44 16.171l0.075-1.407q1.523 0.262 3.031 0.603zM8.607 16.171l-3.106-0.805q1.507-0.339 3.031-0.603zM8.833 16.545v0l0.014-0.005 0.006-0.006 0.011-0.006 0.013-0.009c0.007-0.006 0.013-0.013 0.019-0.020l0.006-0.008c0.006-0.009 0.012-0.018 0.017-0.029l0-0.001c0.004-0.009 0.007-0.019 0.009-0.030l0-0.011c0-0.004 0.001-0.009 0.001-0.014s-0-0.010-0.001-0.015 0 0.001 0-0.006l-0.075-1.751c3.343-0.558 6.738-0.911 10.133-0.911h0.051c3.398 0 6.794 0.354 10.133 0.912l-0.089 1.707s0 0.022 0 0.025c-0 0.005-0.001 0.012-0.001 0.018s0 0.013 0.001 0.019-0 0.010-0 0.013c0.002 0.013 0.006 0.024 0.010 0.034l-0-0.001c0.005 0.011 0.011 0.021 0.017 0.030l0.005 0.007c0.006 0.007 0.012 0.014 0.019 0.020l0 0 0.013 0.009 0.011 0.006 0.013 0.005 0.014 0.005c0.016 0 0.573 0.179 1.387 0.465-0.601 5.863-5.514 10.399-11.486 10.399-5.985 0-10.907-4.556-11.486-10.389 0.726-0.304 1.214-0.458 1.229-0.462z"></path>
<path fill="#db001b" class="path55 fill-color1" d="M14.181 9.213c0.053 0.046 0.088 0.111 0.094 0.185l0.097 1.098q0.078 0.884-0.149 1.394c-0.173 0.358-0.469 0.634-0.832 0.776l-1.311 0.579c-0.025 0.013-0.055 0.022-0.086 0.025-0.008 0.001-0.016 0.001-0.024 0.001-0.044 0-0.086-0.012-0.121-0.034-0.041-0.024-0.075-0.061-0.094-0.105-0.012-0.025-0.019-0.054-0.020-0.083-0.001-0.006-0.001-0.013-0.001-0.020 0-0.045 0.012-0.086 0.033-0.122 0.025-0.044 0.064-0.079 0.112-0.098l0.796-0.345-1.033-2.758c-0.008-0.018-0.014-0.040-0.018-0.062-0.001-0.009-0.001-0.016-0.001-0.024 0-0.067 0.025-0.129 0.067-0.175 0.045-0.056 0.112-0.094 0.188-0.1 0.008-0.001 0.017-0.001 0.025-0.001 0.053 0 0.102 0.015 0.144 0.041 0.048 0.030 0.086 0.076 0.105 0.131l1.013 2.733 0.107-0.045c0.238-0.103 0.417-0.303 0.49-0.549q0.131-0.403 0.069-1.109l-0.097-1.098c-0.001-0.007-0.001-0.015-0.001-0.024 0-0.143 0.109-0.26 0.248-0.273 0.011-0.001 0.022-0.002 0.033-0.002 0.064 0 0.122 0.023 0.166 0.062z"></path>
<path fill="#db001b" class="path56 fill-color1" d="M18.201 12.267c-0 0.039-0.010 0.076-0.026 0.108-0.023 0.049-0.065 0.087-0.116 0.105-0.068 0.024-0.144 0.037-0.223 0.038l-2.363 0.081c-0.001 0-0.002 0-0.003 0-0.13 0-0.236-0.101-0.244-0.229-0-0.004-0-0.008-0-0.012 0-0.063 0.025-0.119 0.066-0.16 0.041-0.044 0.099-0.072 0.164-0.074l1.946-0.066-2.299-2.564c-0.037-0.040-0.061-0.093-0.065-0.152-0-0.002-0-0.003-0-0.004 0-0.089 0.041-0.169 0.106-0.22 0.042-0.035 0.095-0.057 0.153-0.059 0.005-0 0.011-0.001 0.017-0.001 0.084 0 0.158 0.039 0.207 0.099l1.401 1.573 0.631-1.582c0.019-0.054 0.057-0.097 0.105-0.122 0.036-0.025 0.079-0.040 0.125-0.040 0.003-0 0.007-0 0.011-0 0.046 0 0.089 0.012 0.126 0.032 0.043 0.025 0.079 0.061 0.105 0.105 0.022 0.040 0.035 0.086 0.035 0.135 0 0.042-0.009 0.082-0.026 0.118l-0.73 1.786 0.787 0.884c0.060 0.057 0.1 0.134 0.11 0.22z"></path>
<path fill="#db001b" class="path57 fill-color1" d="M22.103 12.16c0.042 0.043 0.068 0.102 0.068 0.166 0 0.068-0.029 0.129-0.075 0.173-0.043 0.041-0.101 0.065-0.165 0.065-0.003 0-0.007-0-0.010-0l-2.857-0.057c-0.13-0.006-0.233-0.112-0.234-0.243 0-0 0-0 0-0.001 0-0.067 0.029-0.126 0.074-0.168 0.042-0.040 0.099-0.065 0.162-0.065 0.002 0 0.005 0 0.007 0l2.011 0.041 0.033-1.77c0.002-0.025 0.003-0.054 0.003-0.083 0-0.149-0.026-0.292-0.073-0.424-0.044-0.107-0.132-0.197-0.242-0.248-0.14-0.057-0.298-0.089-0.464-0.089-0.010 0-0.020 0-0.030 0-0.017-0-0.039-0.001-0.062-0.001-0.144 0-0.285 0.009-0.424 0.026q-0.222 0.026-0.634 0.095c-0.013 0.002-0.027 0.004-0.042 0.004-0.054 0-0.105-0.017-0.145-0.047-0.053-0.035-0.091-0.092-0.1-0.158-0.001-0.009-0.002-0.017-0.002-0.026 0-0.056 0.021-0.108 0.056-0.147 0.041-0.049 0.098-0.084 0.163-0.098 0.348-0.080 0.746-0.126 1.155-0.126 0.025 0 0.050 0 0.074 0.001 0.008-0 0.023-0 0.037-0 0.268 0 0.523 0.055 0.754 0.155 0.174 0.083 0.319 0.233 0.399 0.417 0.078 0.197 0.122 0.42 0.122 0.653 0 0.038-0.001 0.076-0.003 0.113l-0.035 1.762 0.304 0.006c0.067 0 0.128 0.028 0.172 0.074z"></path>
<path fill="#db001b" class="path58 fill-color1" d="M25.865 9.645q0.272 0.38 0.213 1.074l-0.149 1.893c-0.001 0.067-0.030 0.128-0.076 0.171-0.041 0.032-0.093 0.051-0.15 0.051-0.013 0-0.025-0.001-0.037-0.003l-1.334-0.107c-0.121-0.016-0.214-0.118-0.214-0.242 0-0.005 0-0.010 0-0.014 0.004-0.065 0.036-0.123 0.084-0.162 0.041-0.035 0.094-0.057 0.153-0.057 0.007 0 0.014 0 0.021 0.001l1.038 0.082 0.126-1.6c0.008-0.068 0.013-0.147 0.013-0.227 0-0.131-0.012-0.258-0.036-0.382-0.023-0.12-0.096-0.232-0.198-0.306-0.126-0.075-0.276-0.12-0.435-0.125-0.027-0.002-0.058-0.002-0.089-0.002-0.23 0-0.45 0.047-0.65 0.131-0.23 0.082-0.438 0.204-0.618 0.358l-0.173 2.224c-0.005 0.075-0.043 0.141-0.099 0.184-0.047 0.040-0.108 0.064-0.174 0.064-0.009 0-0.018-0-0.027-0.001-0.137-0.009-0.246-0.124-0.246-0.264 0-0.008 0-0.017 0.001-0.025l0.239-3.020c0.005-0.075 0.040-0.141 0.092-0.186 0.045-0.041 0.105-0.067 0.171-0.067 0.009 0 0.018 0 0.026 0.001 0.142 0.010 0.254 0.129 0.254 0.273 0 0.009-0 0.018-0.001 0.026l-0.021 0.272c0.186-0.143 0.404-0.258 0.639-0.332 0.21-0.075 0.435-0.115 0.67-0.115 0.047 0 0.095 0.002 0.141 0.005q0.575 0.048 0.846 0.427z"></path>
</symbol>
<symbol id="triangle" viewBox="0 0 28 32">
<path class="path1" d="M0 0l27.678 15.965-27.678 16.035z"></path>
</symbol>
</defs>
</svg>
